<?xml version="1.0" encoding="utf-8"?>
<!-- Generator: Adobe Illustrator 28.0.0, SVG Export Plug-In . SVG Version: 6.00 Build 0)  -->
<svg version="1.1" id="Ebene_1" xmlns="http://www.w3.org/2000/svg" xmlns:xlink="http://www.w3.org/1999/xlink" x="0px" y="0px"
	 viewBox="0 0 792.4 163.9" style="enable-background:new 0 0 792.4 163.9;" xml:space="preserve">
<style type="text/css">
	.st0{fill:#C94947;}
</style>
<g>
	<path class="st0" d="M603.4,82.1c-0.2-13.8,11-24.6,24.6-24.6c13.6,0,24.6,10.8,24.6,24.3c0,13.8-10.8,24.6-24.6,24.6
		C614.4,106.4,603.4,95.9,603.4,82.1z"/>
	<g>
		<path class="st0" d="M23.4,67.9V21.2c0-1.3-1-2.3-2.3-2.3c-1.3,0-2.3,1-2.3,2.3v51.4h23.4c0,0,0,0,0,0v91.3c0,0,0,0,0,0H17.7
			c-9.8,0-17.7-7.9-17.7-17.7V17.7C0,8,7.9,0,17.7,0h6.9C34.4,0,42.3,8,42.3,17.7v50.1c0,0,0,0,0,0c0,0,0,0,0,0L23.4,67.9
			C23.5,67.9,23.5,67.9,23.4,67.9C23.4,67.9,23.4,67.9,23.4,67.9z M18.9,91.4v51.4c0,1.3,1,2.3,2.3,2.3h2.3V91.4L18.9,91.4z"/>
		<path class="st0" d="M125.6,0v146.1c0,9.8-7.9,17.7-17.7,17.7H101c-9.8,0-17.7-7.9-17.7-17.7V0c0,0,0,0,0,0h18.8c0,0,0,0,0,0
			v142.7c0,1.3,1,2.3,2.3,2.3c1.3,0,2.3-1,2.3-2.3V0c0,0,0,0,0,0s0,0,0,0L125.6,0C125.6,0,125.6,0,125.6,0C125.6,0,125.6,0,125.6,0z
			"/>
		<path class="st0" d="M209,0v18.8c0,0,0,0,0,0c0,0,0,0,0,0h-11.7v145c0,0,0,0,0,0h-18.8c0,0,0,0,0,0c0,0,0,0,0,0v-145h-11.7
			c0,0,0,0,0,0V0.1c0,0,0,0,0,0c0,0,0,0,0,0L209,0C208.9,0,209,0,209,0z"/>
		<path class="st0" d="M315.7,17.7v146.1l0,0h-18.8c0,0,0,0,0,0V21.2c0-1.3-1-2.3-2.3-2.3h-2.3v145h-18.8c0,0,0,0,0,0c0,0,0,0,0,0
			V21.2c0-1.3-1-2.3-2.3-2.3h-2.3v145c0,0,0,0,0,0H250c0,0,0,0,0,0c0,0,0,0,0,0V0.1c0,0,0,0,0,0h48C307.7,0.1,315.6,8,315.7,17.7z"
			/>
		<path class="st0" d="M399,17.7v146.1c0,0,0,0,0,0h-18.8c0,0,0,0,0,0v-23.4h-4.6v23.4c0,0,0,0,0,0c0,0,0,0,0,0h-18.8c0,0,0,0,0,0
			V17.7c0-9.8,7.9-17.7,17.7-17.7h6.9C391.1,0,399,7.9,399,17.7z M380.1,121.5V21.2c0-1.3-1-2.3-2.3-2.3c-1.3,0-2.3,1-2.3,2.3v100.4
			H380.1z"/>
		<path class="st0" d="M482.3,17.7v146.1l0,0h-18.8c0,0,0,0,0,0c0,0,0,0,0,0V21.2c0-1.3-1-2.3-2.3-2.3h-2.3v145c0,0,0,0,0,0H440
			c0,0,0,0,0,0c0,0,0,0,0,0V0.1c0,0,0,0,0,0h24.6C474.4,0,482.3,7.9,482.3,17.7z"/>
		<path class="st0" d="M565.6,17.7v146.1l0,0h-18.8c0,0,0,0,0,0s0,0,0,0V21.2c0-1.3-1-2.3-2.3-2.3h-2.3v145c0,0,0,0,0,0h-18.8
			c0,0,0,0,0,0c0,0,0,0,0,0V0.1c0,0,0,0,0,0h24.5C557.7,0,565.6,7.9,565.6,17.7z"/>
		<path class="st0" d="M732.5,17.7v146.1c0,0,0,0,0,0h-18.8c0,0,0,0,0,0v-23.4h-4.6v23.4c0,0,0,0,0,0c0,0,0,0,0,0h-18.8c0,0,0,0,0,0
			V17.7c0-9.8,7.9-17.7,17.7-17.7h6.9C724.6,0,732.5,7.9,732.5,17.7z M713.6,121.5V21.2c0-1.3-1-2.3-2.3-2.3c-1.3,0-2.3,1-2.3,2.3
			v100.4H713.6z"/>
		<path class="st0" d="M792.4,0v163.8c0,0,0,0,0,0c0,0,0,0,0,0h-18.8c0,0,0,0,0,0c0,0,0,0,0,0V0c0,0,0,0,0,0L792.4,0
			C792.4,0,792.4,0,792.4,0z"/>
	</g>
</g>
</svg>
