<?xml version="1.0" standalone="no"?>
<!DOCTYPE svg PUBLIC "-//W3C//DTD SVG 1.1//EN" "http://www.w3.org/Graphics/SVG/1.1/DTD/svg11.dtd" >
<svg xmlns="http://www.w3.org/2000/svg" xmlns:xlink="http://www.w3.org/1999/xlink" version="1.1">
<metadata></metadata>
<defs>
<font id="vollkornsemibold" horiz-adv-x="1126" >
<font-face units-per-em="2048" ascent="1536" descent="-512" />
<missing-glyph horiz-adv-x="409" />
<glyph horiz-adv-x="0" />
<glyph horiz-adv-x="682" />
<glyph unicode=" "  horiz-adv-x="409" />
<glyph unicode="&#x09;" horiz-adv-x="409" />
<glyph unicode="&#xa0;" horiz-adv-x="409" />
<glyph unicode="!" horiz-adv-x="841" d="M272 1391q57 10 131 31.5t115 41.5q43 -14 43 -63q0 -18 -2 -29q-54 -508 -72 -883q-43 -16 -125 -16q-35 516 -90 918zM281 119q0 61 43 101t108 40q61 0 99 -41t38 -90q0 -66 -41 -105.5t-104 -39.5q-68 0 -105.5 36.5t-37.5 98.5z" />
<glyph unicode="&#x22;" horiz-adv-x="741" d="M123 1417q84 10 141 47q25 -4 37 -24.5t10 -48.5l-4 -35q-18 -123 -35 -350l-6 -64q-27 0 -57.5 6t-40.5 17q-10 244 -45 452zM434 1417q35 4 73 17.5t64 29.5q23 -4 35 -21.5t12 -43.5v-23q-18 -131 -40 -436q-74 0 -103 21q-16 293 -41 456z" />
<glyph unicode="#" horiz-adv-x="1230" d="M55 416q0 70 27 129h227l72 354q-154 0 -221 -2q0 72 26 127h222l90 440q80 -8 110 -47l-80 -393h316l90 440q37 -4 66.5 -16t43.5 -27l-79 -397h211q0 -72 -27 -123h-145h-64l-74 -356h228q0 -39 -5.5 -65.5t-21.5 -57.5h-197h-28l-88 -438q-80 8 -113 45l80 393 q-229 0 -315 -2l-91 -436q-76 6 -110 53l78 383zM430 545h315l74 356h-317z" />
<glyph unicode="$" horiz-adv-x="1136" d="M117 109q20 117 20 307q59 16 150 16q10 -154 61 -233.5t162 -96.5v478q-115 53 -189.5 104t-126 134t-51.5 202q0 168 100.5 266t272.5 115v129q72 0 117 -27l-2 -102q92 -6 176 -30.5t137 -57.5q0 -197 12 -281q-51 -27 -149 -26q-25 137 -67 201.5t-109 78.5 q-2 -145 -2 -452q147 -72 224 -117t136.5 -128t59.5 -206q0 -162 -109 -272.5t-315 -126.5l2 -166q-31 0 -66 7t-51 19v140q-106 4 -198.5 34.5t-194.5 90.5zM358 1112q0 -72 41 -124t117 -97v397q-76 -12 -117 -57t-41 -119zM623 526q0 -279 2 -426q98 13 146 64t48 127 q0 80 -50 133t-146 102z" />
<glyph unicode="%" horiz-adv-x="1767" d="M180 1049q0 90 40 167.5t118 123.5t186 46q96 0 165 -45t104.5 -116.5t35.5 -147.5q0 -94 -38.5 -172t-112.5 -124t-174 -46q-103 0 -176.5 44t-110.5 117t-37 153zM274 61l1129 1344q66 -10 108 -59l-1138 -1360q-35 10 -60.5 30.5t-38.5 44.5zM362 1075 q0 -104 42 -169.5t114 -65.5q49 0 90 56t41 155q0 100 -42 165.5t-107 65.5q-57 0 -97.5 -59.5t-40.5 -147.5zM938 297q0 90 40 168t118 124t186 46q96 0 165 -45t104.5 -117t35.5 -147q0 -94 -39 -172t-112.5 -124t-173.5 -46q-103 0 -176.5 44t-110.5 116.5t-37 152.5z M1120 324q0 -104 42 -170t114 -66q49 0 90 56.5t41 154.5q0 100 -42 165.5t-108 65.5q-57 0 -97 -59t-40 -147z" />
<glyph unicode="&#x26;" horiz-adv-x="1554" d="M111 418q0 270 280 438q-45 78 -66.5 150.5t-21.5 150.5q0 133 97.5 222t285.5 89q94 0 166 -17t147 -54q-14 -74 -14 -183q0 -53 2 -79q-55 -18 -143 -19q-8 129 -48 186.5t-122 57.5q-66 0 -106 -43t-40 -119q0 -88 39 -171t154 -226q162 -203 309 -367q84 145 107 244 q8 27 8 55q0 47 -34 70.5t-116 40.5q-14 45 -14 100q90 -6 219 -6t207 6q0 -59 -10 -98q-66 -23 -94.5 -56.5t-49.5 -107.5q-27 -86 -59.5 -161t-85.5 -171q31 -35 100 -108q54 -58 100 -77.5t136 -25.5q0 -66 -19 -119q-66 0 -165 -12t-162 -26q-72 92 -142 178 q-84 -94 -177 -137t-212 -43q-231 0 -343.5 125.5t-112.5 312.5zM342 483q0 -166 79 -255t200 -89q75 0 136.5 27t121.5 86l-160 186q-135 156 -164 191q-49 61 -104 133q-109 -117 -109 -279z" />
<glyph unicode="'" horiz-adv-x="436" d="M123 1415q39 6 78 19.5t63 29.5q23 -4 36 -21.5t13 -41.5v-23q-20 -137 -41 -438q-74 0 -102 23q-10 240 -47 452z" />
<glyph unicode="(" horiz-adv-x="630" d="M72 492q0 279 91 518t290 508q49 2 88 -31q-138 -211 -198 -438.5t-60 -542.5q0 -322 66.5 -573.5t203.5 -471.5q-29 -20 -90 -16q-391 492 -391 1047z" />
<glyph unicode=")" horiz-adv-x="630" d="M78 -539q143 229 206.5 469t63.5 564q0 317 -60.5 550.5t-197.5 442.5q41 33 90 31q197 -269 288 -505.5t91 -504.5q0 -303 -101.5 -565t-287.5 -498q-61 -4 -92 16z" />
<glyph unicode="*" horiz-adv-x="944" d="M123 1300q29 104 88 154q88 -86 225 -192q12 121 13 294q45 2 94 -7t82 -29q-57 -119 -117 -273q123 25 289 78q25 -57 24 -131q0 -16 -4 -53q-88 14 -260 26l-43 4q78 -127 168 -247q-72 -66 -170 -74q-18 113 -66 289q-84 -90 -186 -230q-39 23 -70.5 59t-46.5 76 q125 66 254 154q-117 53 -274 102z" />
<glyph unicode="+" d="M94 463q0 86 21 127h387q0 229 -2 418q25 14 51.5 18t71.5 4v-440h409q0 -43 -4 -72t-18 -53q-174 2 -387 2v-440q-16 -10 -54.5 -16.5t-70.5 -6.5q4 274 4 463q-145 0 -408 -4z" />
<glyph unicode="," horiz-adv-x="563" d="M125 -342q63 72 98 138.5t35 119.5q0 88 -111 102q0 90 23 154q117 16 188 64q43 -16 62.5 -55.5t19.5 -112.5q0 -117 -61.5 -236t-161.5 -213q-27 2 -51.5 12.5t-40.5 26.5z" />
<glyph unicode="-" horiz-adv-x="858" d="M123 446q0 39 9 85.5t24 76.5h579q1 -90 -26 -151q-381 0 -586 -11z" />
<glyph unicode="." horiz-adv-x="534" d="M106 135q0 72 48.5 117t124.5 45q70 0 113.5 -46t43.5 -104q0 -76 -46 -120.5t-120 -44.5q-77 0 -120.5 42t-43.5 111z" />
<glyph unicode="/" horiz-adv-x="768" d="M66 31l532 1431q27 -4 58.5 -19.5t52.5 -31.5l-531 -1429q-75 12 -112 49z" />
<glyph unicode="0" horiz-adv-x="1247" d="M76 522q0 160 78.5 276.5t205.5 177t271 60.5q147 0 270 -60.5t196.5 -177t73.5 -276.5q0 -162 -72.5 -284.5t-196.5 -189t-271 -66.5q-152 0 -279 66.5t-201.5 189t-74.5 284.5zM317 559q0 -102 44.5 -206.5t126 -172t188.5 -67.5q123 0 185.5 102t62.5 258 q0 96 -42 200.5t-121 174.5t-183 70q-121 0 -191 -102.5t-70 -256.5z" />
<glyph unicode="1" horiz-adv-x="808" d="M131 -6q0 70 12 108q57 4 87 20.5t42.5 56.5t12.5 116v438q0 76 -12.5 115t-42 54.5t-87.5 19.5q-12 49 -12 108q98 -6 275 -6q174 0 272 6q0 -53 -10 -108q-57 -4 -87 -19.5t-42.5 -54.5t-12.5 -115v-438q0 -78 12.5 -118t41 -56.5t88.5 -18.5q10 -43 10 -108 q-119 6 -272 6q-164 0 -275 -6z" />
<glyph unicode="2" horiz-adv-x="1081" d="M113 113q150 141 331 297q119 104 161 174.5t42 152.5q0 90 -41 138.5t-121 48.5q-78 0 -118.5 -58.5t-61.5 -216.5q-82 0 -135 19q6 53 6 127q0 94 -10 143q150 98 379 98q168 0 262 -63.5t94 -198.5q0 -94 -52 -162.5t-196 -187.5l-53 -45q-31 -29 -75 -66t-103 -90 h252q66 0 95.5 8.5t41.5 32t18 80.5q78 0 119 -16q0 -169 23 -273q-25 -59 -82 -59q-238 4 -393 4q-193 0 -349 -4q-18 25 -26 51.5t-8 65.5z" />
<glyph unicode="3" horiz-adv-x="1048" d="M88 -256q4 51 41 88q86 -61 246 -61q82 0 156.5 34.5t120.5 101t46 159.5q0 111 -66.5 179t-191.5 68q-35 0 -65 -12q-18 18 -29.5 45t-11.5 49q213 266 323 420h-223q-63 0 -95 -10t-53.5 -41t-43.5 -96q-72 0 -111 30q16 78 20.5 149t4.5 183q111 -6 374 -6 q240 0 351 6q36 -40 30 -106q-180 -225 -344 -439q109 2 197 -42t140 -132t52 -211q0 -127 -66.5 -229t-192.5 -161.5t-296 -59.5q-100 0 -182 25.5t-131 68.5z" />
<glyph unicode="4" horiz-adv-x="1232" d="M76 121l694 915q78 4 145 -18v-809h158q53 0 78 -31q-41 -86 -41 -178h-195v-305q-51 0 -117.5 -15.5t-97.5 -29.5q-31 25 -30 84v266h-27q-217 0 -522 -14q-45 74 -45 135zM315 209h355v516z" />
<glyph unicode="5" horiz-adv-x="985" d="M106 -291q0 53 31 90q25 -12 77 -20t114 -8q127 0 212 80.5t85 216.5q0 141 -126 227t-325 113q-39 33 -43 84l125 538q142 -6 373 -6q104 0 104 102q39 12 117 13q-14 -100 -14 -293q-18 -45 -95 -45q-352 0 -422 -6l-43 -181q307 -57 457 -170.5t150 -318.5 q0 -150 -79 -257.5t-202 -162.5t-248 -55q-84 0 -148.5 16.5t-99.5 42.5z" />
<glyph unicode="6" horiz-adv-x="1083" d="M72 492q0 285 122.5 465t303 260.5t364.5 89.5q25 -31 23 -88q-242 -51 -373 -167t-172 -329q76 45 140.5 65.5t131.5 20.5q185 0 290.5 -99.5t105.5 -275.5q0 -141 -64.5 -243.5t-170 -155.5t-226.5 -53q-231 0 -353 128t-122 382zM322 498q0 -139 37.5 -229.5 t93 -129.5t110.5 -39q99 0 151 78t52 187t-40 179t-99.5 101t-122.5 31q-92 0 -176 -51q-6 -57 -6 -127z" />
<glyph unicode="7" horiz-adv-x="985" d="M82 678q33 137 39 352q102 -6 368 -6q250 0 388 6q31 -37 34 -102q-76 -111 -149.5 -238t-122.5 -229q-80 -168 -107.5 -311.5t-27.5 -389.5q-61 -20 -114.5 -53t-88.5 -67q-31 10 -47 35.5t-16 74.5q0 188 111.5 431t340.5 618h-274q-66 0 -101.5 -11.5t-58.5 -42 t-41 -94.5q-78 -2 -133 27z" />
<glyph unicode="8" horiz-adv-x="1081" d="M100 299q0 125 65.5 214t205.5 167q-111 74 -167.5 146.5t-56.5 166.5q0 143 104.5 227.5t287.5 84.5q180 0 286.5 -74t106.5 -203q0 -186 -230 -297q142 -92 210.5 -184t68.5 -215q0 -166 -118 -258t-331 -92q-203 0 -317.5 84t-114.5 233zM336 330q0 -111 59.5 -175.5 t161.5 -64.5q84 0 133 51.5t49 134.5q0 98 -65.5 174t-202.5 166q-76 -59 -105.5 -121.5t-29.5 -164.5zM389 1044q0 -73 43 -124.5t150 -114.5l20 -12q53 39 76.5 90t23.5 121q0 90 -44 143t-119 53q-70 0 -110 -42t-40 -114z" />
<glyph unicode="9" horiz-adv-x="1099" d="M76 580q0 150 66.5 253t175 153t237.5 50q238 0 356.5 -132t118.5 -400q0 -260 -135 -445.5t-329.5 -286t-372.5 -120.5q-14 18 -19.5 40.5t-5.5 55.5q248 82 394.5 210t197.5 310q-119 -78 -262 -78q-121 0 -217.5 49.5t-150.5 137.5t-54 203zM322 647q0 -170 86 -243.5 t202 -73.5q90 0 170 51q6 49 6 102q0 223 -67.5 332t-188.5 109q-92 0 -150 -79t-58 -198z" />
<glyph unicode=":" horiz-adv-x="534" d="M123 168q0 61 43 101t108 40q61 0 99.5 -41t38.5 -90q0 -66 -41 -105.5t-105 -39.5q-67 0 -105 36.5t-38 98.5zM123 748q0 61 43 101t108 40q61 0 99.5 -41t38.5 -90q0 -66 -41 -106t-105 -40q-67 0 -105 37t-38 99z" />
<glyph unicode=";" horiz-adv-x="569" d="M129 -342q63 72 98 138.5t35 119.5q0 88 -110 102q0 90 22 154q117 16 188 64q43 -16 62.5 -55.5t19.5 -112.5q0 -117 -61 -236t-162 -213q-27 2 -51.5 12.5t-40.5 26.5zM156 748q0 61 43 101t108 40q61 0 99 -41t38 -90q0 -66 -41 -106t-104 -40q-68 0 -105.5 37 t-37.5 99z" />
<glyph unicode="&#x3c;" d="M125 510q0 47 25 90l727 432q35 -10 59.5 -28.5t44.5 -51.5l-717 -420l688 -364q4 -29 4 -45q0 -72 -26 -100q-395 237 -801 444q-4 14 -4 43z" />
<glyph unicode="=" d="M111 285q0 32 5 68t17 57h885q0 -80 -23 -123q-162 2 -417 2q-285 0 -467 -4zM111 635q0 33 7 67.5t17 55.5h881q0 -76 -23 -121q-162 2 -415 2q-283 0 -467 -4z" />
<glyph unicode="&#x3e;" d="M154 952q37 66 104 88l735 -462q4 -25 4 -37q0 -45 -24 -86q-193 -98 -344.5 -186.5t-415.5 -248.5q-37 37 -37 107q0 16 2 25l684 380z" />
<glyph unicode="?" horiz-adv-x="1099" d="M240 1120q6 78 6 137q0 55 -6 117q152 90 344 90q161 0 253.5 -67.5t92.5 -190.5q0 -92 -39 -159.5t-115 -151.5q-78 -88 -115.5 -153.5t-37.5 -157.5q0 -31 7 -74t17 -76q-43 -23 -104 -22q-41 29 -72 100.5t-31 153.5q0 96 36 159.5t104 137.5q55 61 82.5 108t27.5 109 q0 82 -43 131t-102 49q-70 0 -109 -61.5t-55 -206.5q-88 0 -141 28zM418 135q0 72 48 117t124 45q70 0 114 -46t44 -104q0 -76 -46.5 -120.5t-119.5 -44.5q-78 0 -121 42t-43 111z" />
<glyph unicode="@" horiz-adv-x="2043" d="M231 467q0 248 103.5 449.5t300 318.5t465.5 117q233 0 394 -83t241 -225.5t80 -320.5q0 -211 -69 -381t-180.5 -265t-232.5 -95q-156 0 -155 200v101q-49 -141 -126 -221t-175 -80q-268 0 -269 428q0 158 51.5 282.5t141.5 194t203 69.5q111 0 202 -20q94 0 154 20 q31 -12 40 -48t9 -148v-365q0 -109 5 -155.5t18.5 -62t46.5 -15.5q39 0 90 62.5t87 183t36 286.5q0 154 -68 280t-207 200.5t-342 74.5q-225 0 -382.5 -98t-236.5 -272t-79 -396q0 -215 80 -394t242.5 -285.5t402.5 -106.5q174 0 322.5 56.5t252.5 170.5q54 -12 74 -63 q-92 -129 -275.5 -202t-402.5 -73q-281 0 -469 112t-280.5 309.5t-92.5 459.5zM850 475q0 -162 30.5 -236.5t82.5 -74.5q36 0 81.5 57.5t84 168t55.5 261.5l4 142q-78 53 -166 53q-92 0 -132 -83t-40 -288z" />
<glyph unicode="A" horiz-adv-x="1449" d="M43 -6q0 63 16 106q53 10 83 52.5t81 164.5l426 1069q43 10 101 11l479 -1086q39 -86 63.5 -128t46 -59.5t54.5 -21.5q14 -49 14 -108q-80 6 -258 6q-190 0 -268 -6q0 70 16 108q51 6 74.5 20.5t23.5 43.5q0 31 -28 94l-68 160q-317 0 -520 -10l-41 -107 q-27 -68 -27 -113q0 -41 24.5 -62.5t76.5 -25.5q16 -49 16 -108q-70 6 -209 6q-59 0 -176 -6zM424 524h430l-133 312q-55 123 -94 243q-37 -119 -84 -243z" />
<glyph unicode="B" horiz-adv-x="1327" d="M100 -6q0 76 13 108q57 4 86.5 20.5t42 60.5t12.5 128v781q0 76 -12.5 114.5t-42 55t-86.5 20.5q-10 37 -11 109q80 -6 215 -7q109 0 168 2l174 3q231 0 352.5 -70t121.5 -234q0 -131 -82 -221t-224 -110q402 -25 402 -353q0 -182 -131 -291.5t-404 -109.5 q-393 0 -594 -6zM506 305q0 -86 16.5 -128t53 -56.5t106.5 -14.5q129 0 196.5 71t67.5 198q0 293 -391 293h-49v-363zM506 774h65q297 0 297 250q0 131 -80.5 193.5t-193.5 62.5q-41 0 -88 -12v-494z" />
<glyph unicode="C" horiz-adv-x="1327" d="M72 700q0 225 96 384t254 239t340 80q121 0 230.5 -26.5t221.5 -80.5q-22 -112 -22 -300v-17q-43 -20 -135 -21q-4 190 -75 265t-206 75q-219 0 -325.5 -155.5t-106.5 -386.5q0 -180 57.5 -323.5t168 -225.5t264.5 -82q90 0 184 28.5t180 82.5q14 -12 26.5 -35t16.5 -41 q-113 -90 -231.5 -134t-272.5 -44q-194 0 -345.5 91t-235.5 255t-84 372z" />
<glyph unicode="D" horiz-adv-x="1501" d="M100 -6q0 76 13 108q57 4 86.5 20.5t42 60.5t12.5 128v781q0 76 -12.5 114.5t-42 55t-86.5 20.5q-10 37 -11 109q109 -6 326 -7q74 0 111 2l123 3q339 0 553.5 -140.5t214.5 -521.5q0 -303 -134.5 -464t-304.5 -212t-332 -51q-408 0 -559 -6zM506 313q0 -84 14.5 -127 t52 -60t111.5 -17q217 0 347 130t130 455q0 309 -148.5 452.5t-373.5 143.5q-78 0 -133 -20v-957z" />
<glyph unicode="E" horiz-adv-x="1257" d="M100 -6q0 76 13 108q57 4 85.5 20.5t41 59.5t12.5 129v781q0 76 -12.5 114.5t-42 55t-86.5 20.5q-10 37 -11 109q139 -6 402 -7q330 0 569 7q20 -231 43 -336q-45 -27 -123 -27q-12 117 -81.5 185.5t-239.5 68.5h-166v-534h94q119 0 164 33.5t47 127.5q49 16 121 17 q-6 -100 -6 -228q0 -137 6 -239q-76 0 -117 12q-8 100 -53 135t-162 35h-94v-328q0 -84 15.5 -127t53 -60t111.5 -17h18q121 0 190 28.5t104.5 81.5t68.5 154q80 -15 123 -56q-45 -139 -64 -321q-184 4 -465 4q-408 0 -559 -6z" />
<glyph unicode="F" horiz-adv-x="1181" d="M100 -6q0 76 11 108q57 4 86.5 20.5t42 55.5t12.5 117v797q0 76 -12.5 114.5t-41 55t-85.5 20.5q-12 43 -13 109q152 -6 400 -7q332 0 571 7q14 -217 43 -336q-45 -27 -123 -27q-14 119 -82.5 186.5t-238.5 67.5h-166v-584h121q119 0 162.5 34t46.5 126q49 18 120 19 q-4 -70 -4 -228q0 -174 4 -239q-72 0 -116 12q-8 100 -52.5 135t-160.5 35h-121v-262q0 -88 19.5 -136.5t60.5 -68t114 -23.5q12 -35 13 -108q-100 6 -295 6q-219 0 -316 -6z" />
<glyph unicode="G" horiz-adv-x="1478" d="M72 709q0 219 97 375.5t260 237.5t359 81q137 0 265.5 -26.5t224.5 -71.5q-23 -117 -23 -318q-47 -22 -128 -22h-7q-8 188 -90 260.5t-233 72.5q-150 0 -252.5 -74.5t-151.5 -198.5t-49 -271q0 -186 52.5 -335t154.5 -234t246 -85q55 0 94 5.5t76 19.5t52 46t15 105v95 q0 88 -12 124.5t-45 50t-111 15.5q-12 41 -12 113q59 -6 260 -6q199 0 254 4q0 -72 -12 -111q-41 -2 -59.5 -14t-24.5 -48t-6 -120v-80q0 -57 5 -93t23 -69q-96 -70 -234 -112.5t-300 -42.5q-207 0 -362.5 89t-240.5 252.5t-85 385.5z" />
<glyph unicode="H" horiz-adv-x="1570" d="M100 -6q0 70 13 108q57 4 85.5 20.5t41 55.5t12.5 117v797q0 76 -12.5 114.5t-41 55t-85.5 20.5q-12 43 -13 109q111 -6 281 -7q152 0 274 7q0 -31 -2 -59.5t-10 -49.5q-57 -4 -86 -20.5t-41 -55.5t-12 -114v-326h561v326q0 76 -11.5 114.5t-40 55t-85.5 20.5 q-14 41 -15 109q111 -6 283 -7q152 0 274 7q0 -72 -12 -109q-57 -4 -86 -20.5t-41 -55.5t-12 -114v-797q0 -78 12 -117t41 -55.5t86 -20.5q12 -39 12 -108q-113 6 -270 6q-170 0 -287 -6q0 61 15 108q57 4 85.5 20.5t40 55.5t11.5 117v362q-420 0 -561 -14v-348 q0 -78 12 -117t41 -55.5t86 -20.5q12 -33 12 -108q-113 6 -268 6q-172 0 -287 -6z" />
<glyph unicode="I" horiz-adv-x="755" d="M100 -6q0 70 13 108q57 4 85.5 20.5t41 55.5t12.5 117v797q0 75 -12.5 114t-41 55.5t-85.5 20.5q-12 43 -13 109q111 -6 281 -7q152 0 274 7q0 -31 -2 -59.5t-10 -49.5q-57 -4 -86 -20.5t-41 -55.5t-12 -114v-797q0 -78 12 -117t41 -55.5t86 -20.5q12 -33 12 -108 q-113 6 -268 6q-172 0 -287 -6z" />
<glyph unicode="J" horiz-adv-x="710" d="M-4 -430q121 96 176 210t55 306v1004q0 78 -11 116.5t-40 55t-86 20.5q-14 41 -14 109q102 -6 278 -7q186 0 279 7q0 -74 -12 -109q-57 -4 -86 -20.5t-41.5 -56.5t-12.5 -115v-828q0 -209 -31.5 -341t-126 -236.5t-280.5 -194.5q-41 27 -47 80z" />
<glyph unicode="K" horiz-adv-x="1439" d="M100 -6q0 70 13 108q57 4 85.5 20.5t41 55.5t12.5 117v797q0 76 -12.5 114.5t-41 55t-85.5 20.5q-12 43 -13 109q111 -6 281 -7q152 0 274 7q0 -31 -2 -59.5t-10 -49.5q-57 -4 -86 -20.5t-41 -55.5t-12 -114v-355l356 371q82 84 82 131q0 39 -63 43q-12 39 -13 109 q70 -6 217 -7q158 0 240 7q0 -70 -16 -109q-74 -4 -138.5 -40t-152.5 -130l-301 -319q156 -162 389 -484q78 -108 137 -151t160 -52q0 -68 -15 -106q-262 0 -378 -14q-80 143 -225.5 340.5t-278.5 328.5v-360q0 -78 12 -117t41 -55.5t86 -20.5q12 -33 12 -108q-113 6 -268 6 q-172 0 -287 -6z" />
<glyph unicode="L" horiz-adv-x="1193" d="M100 -6q0 76 13 108q57 4 86.5 20.5t42 60.5t12.5 128v781q0 76 -12.5 114.5t-42 55t-86.5 20.5q-10 37 -11 109q137 -6 277 -7q156 0 278 7q0 -74 -12 -109q-57 -4 -86 -20.5t-41 -56.5t-12 -118v-774q0 -84 14.5 -127t52 -60t111.5 -17h18q101 0 162.5 25.5t99 80.5 t70.5 158q82 -14 123 -56q-41 -123 -63 -321q-180 4 -435 4q-408 0 -559 -6z" />
<glyph unicode="M" horiz-adv-x="1945" d="M57 -6q0 68 13 108q57 4 87.5 30t49 89.5t31.5 190.5l61 665q2 20 2 56q0 84 -30.5 116.5t-106.5 32.5q-12 39 -12 109q70 -6 192 -7q113 0 191 7l473 -1063l409 1063q82 -6 197 -7q104 0 190 7q0 -68 -12 -109q-72 0 -106.5 -34t-34.5 -122q0 -18 4 -59l69 -698 q10 -109 26.5 -163t44.5 -75.5t81 -26.5q12 -51 12 -110q-92 6 -289 6q-172 0 -268 -6q0 63 15 108q76 8 102.5 35t26.5 99q0 45 -7 108l-69 664l-414 -1012q-37 -14 -102 -14l-465 1022l-62 -605q-8 -94 -8 -120q0 -96 32 -134.5t105 -42.5q12 -41 13 -108q-88 6 -222 6 q-141 0 -219 -6z" />
<glyph unicode="N" horiz-adv-x="1501" d="M92 -6q0 70 10 108q59 2 91 29t45.5 89.5t13.5 180.5v801l-14 19q-27 33 -52.5 45t-83.5 16q-10 43 -10 109q66 -6 184 -7q100 0 164 7l731 -979v579q0 117 -12 177.5t-44 86t-93 27.5q-12 57 -12 109q90 -6 213 -7q120 1 200 7q0 -72 -10 -109q-49 -2 -74.5 -27.5 t-37 -87t-11.5 -176.5v-991q-45 -14 -116 -14l-805 1063v-648q0 -119 12 -181t44 -89t91 -29q12 -37 12 -108q-92 6 -215 6q-147 0 -221 -6z" />
<glyph unicode="O" horiz-adv-x="1513" d="M72 696q0 209 89 369t244.5 249t350.5 89q199 0 355.5 -88t243.5 -246t87 -364q0 -205 -87 -370t-243 -259t-356 -94q-205 0 -359.5 92t-239.5 255t-85 367zM340 750q0 -174 53 -322.5t155.5 -239t244.5 -90.5q116 0 202 72t132.5 198t46.5 285q0 176 -58.5 321.5 t-163 230.5t-235.5 85q-109 0 -195 -66.5t-134 -189.5t-48 -284z" />
<glyph unicode="P" horiz-adv-x="1253" d="M100 -6q0 76 11 108q57 4 86.5 20.5t42 55.5t12.5 117v797q0 76 -12.5 114.5t-41 55t-85.5 20.5q-12 43 -13 109q113 -6 293 -7l174 2q53 2 127 3q256 0 372 -112t116 -294q0 -131 -55.5 -242.5t-164 -178t-260.5 -66.5q-86 0 -143 22q-4 25 -4 39q0 33 12 64 q35 -10 90 -11q113 0 185.5 72t72.5 242q0 166 -76.5 260t-236.5 94q-47 0 -98 -12v-936q0 -88 19.5 -136.5t60.5 -68t114 -23.5q12 -35 13 -108q-100 6 -297 6q-217 0 -314 -6z" />
<glyph unicode="Q" horiz-adv-x="1513" d="M72 696q0 209 89 369t244.5 249t350.5 89q199 0 355.5 -88t243.5 -246t87 -364q0 -238 -115 -419.5t-313 -258.5q59 -19 106 -45.5t109 -67.5q86 -55 150.5 -83t152.5 -28q31 0 47 2q0 -61 -14 -106q-152 -33 -289 -96q-76 23 -126 67.5t-106 118.5q-68 86 -127 133 t-161 60q-205 0 -359.5 92t-239.5 255t-85 367zM340 750q0 -175 53 -323t155.5 -238.5t244.5 -90.5q117 0 202.5 72t132 198t46.5 285q0 176 -58.5 321.5t-163 230.5t-235.5 85q-109 0 -195 -66.5t-134 -189.5t-48 -284z" />
<glyph unicode="R" horiz-adv-x="1419" d="M100 -6q0 72 13 108q57 4 85.5 20.5t41 55.5t12.5 117v797q0 78 -12.5 117.5t-42 56t-86.5 18.5q-10 39 -11 107q76 -6 275 -7l162 2q131 4 202 5q229 0 347 -99.5t118 -257.5q0 -147 -89 -247.5t-243 -139.5q72 -61 120 -128.5t141 -229.5q41 -72 70.5 -108t68.5 -52 t104 -20q0 -68 -12 -109q-238 0 -360 -18q-63 111 -102.5 193.5t-47.5 100.5q-59 115 -104 182.5t-123 143.5l-64 -2l-59 2v-303q0 -80 11 -121t38 -57.5t78 -18.5q10 -33 10 -108q-86 6 -274 6q-162 0 -267 -6zM504 717q49 -6 82 -6q156 0 255 74.5t99 220.5 q0 131 -74.5 203.5t-228.5 72.5q-63 0 -133 -16v-549z" />
<glyph unicode="S" horiz-adv-x="1136" d="M117 109q20 117 20 307q59 16 150 16q10 -174 75.5 -254t212.5 -80q123 0 183.5 54.5t60.5 138.5q0 68 -38 117t-95 82.5t-154 78.5q-125 57 -202.5 107.5t-132 134.5t-54.5 209q0 182 119 282.5t318 100.5q104 0 204.5 -25.5t159.5 -64.5q0 -197 12 -281 q-49 -26 -142 -26h-7q-29 164 -84 225t-154 61q-98 0 -154.5 -47t-56.5 -133q0 -72 40 -123t99.5 -86t161.5 -84q125 -59 203 -108t132.5 -130t54.5 -198q0 -115 -54.5 -205t-165 -143t-272.5 -53q-125 0 -227.5 31.5t-212.5 95.5z" />
<glyph unicode="T" horiz-adv-x="1273" d="M51 1044q39 199 39 347q129 -6 555 -7q426 0 555 7q-1 -25 -1 -51q0 -128 24 -293q-53 -23 -122 -23h-11q-10 129 -64.5 190.5t-167.5 61.5h-90v-981q0 -78 13.5 -117t48 -55.5t108.5 -20.5q14 -37 14 -108q-129 6 -305 6q-205 0 -325 -6q0 72 14 108q74 4 110.5 20.5 t52 55.5t15.5 117v981h-76q-88 0 -138 -28.5t-74.5 -81t-45.5 -142.5q-88 0 -129 20z" />
<glyph unicode="U" horiz-adv-x="1394" d="M74 1391q82 -6 248 -7q195 0 290 7q0 -66 -10 -109q-63 -6 -91 -20.5t-38 -52.5t-10 -119v-582q0 -193 72.5 -297.5t242.5 -104.5q55 0 111.5 19.5t93.5 60.5q45 47 62.5 125t17.5 238v469q0 102 -11.5 155.5t-40 78t-87.5 30.5q-10 57 -11 109q74 -6 203 -7q121 0 201 7 q0 -55 -12 -109q-49 -6 -76 -29.5t-37 -76t-10 -152.5v-469q0 -186 -24.5 -288.5t-94.5 -170.5q-114 -114 -336 -114h-4q-193 0 -304.5 54t-159.5 162.5t-48 278.5v613q0 80 -10.5 117.5t-35 52t-79.5 22.5q-12 39 -12 109z" />
<glyph unicode="V" horiz-adv-x="1417" d="M43 1391q86 -6 272 -7q135 0 275 7q0 -61 -12 -109q-61 -4 -89 -19.5t-28 -52.5q0 -41 45 -147q162 -385 276 -727q176 408 287 723q25 68 25 117q0 94 -105 106q-12 39 -12 109q84 -6 190 -7q127 1 207 7q0 -55 -12 -109q-57 -12 -94 -64.5t-80 -166.5 q-242 -616 -426 -1053q-39 -12 -111 -12q-225 608 -422 1058q-47 109 -70.5 154t-45 62.5t-58.5 21.5q-12 41 -12 109z" />
<glyph unicode="W" horiz-adv-x="2043" d="M43 1391q98 -6 262 -7q156 0 277 7q0 -61 -13 -109q-70 -4 -97.5 -20.5t-27.5 -55.5q0 -43 35 -143q121 -362 207 -668l340 994q37 12 115 12q182 -477 375 -1016l188 606q31 102 31 160q0 61 -32 91t-99 40q-16 43 -17 109q86 -6 211 -7q119 1 203 7q0 -68 -14 -109 q-37 -10 -63 -36.5t-49.5 -84t-59.5 -174.5l-308 -991q-41 -14 -121 -14q-168 477 -376 1011l-338 -999q-49 -12 -123 -12q-188 623 -334 1054q-39 119 -60.5 165t-41 60.5t-60.5 18.5q-10 43 -10 111z" />
<glyph unicode="X" horiz-adv-x="1402" d="M70 -6q0 70 14 112q66 16 127 66.5t137 153.5l236 338q-90 145 -244 378q-72 109 -106.5 155t-58 61.5t-60.5 21.5q-14 45 -15 111q106 -6 299 -7q135 0 263 5q0 -59 -11 -107q-47 -8 -68.5 -22.5t-21.5 -42.5q0 -45 66 -146l108 -166l41 -63l129 202q74 121 74 170 q0 31 -23.5 46.5t-70.5 21.5q-12 41 -13 109q102 -6 222 -7q135 0 211 7q0 -72 -11 -109q-63 -16 -111 -59t-132 -172l-207 -316l22 -37q131 -211 201 -329q68 -111 107.5 -165t70.5 -74.5t72 -27.5q14 -42 14 -108q-88 6 -287 6q-158 0 -280 -4q0 61 10 106q45 4 66.5 15.5 t21.5 38.5q0 47 -80 180q-55 96 -135 223l-147 -217q-41 -61 -60.5 -101t-19.5 -67q0 -29 23.5 -45t74.5 -27q12 -41 12 -108q-104 6 -235 6q-141 0 -225 -6z" />
<glyph unicode="Y" horiz-adv-x="1292" d="M43 1389q135 -4 250 -5q223 0 293 5q0 -59 -11 -103q-47 -4 -67.5 -19.5t-20.5 -43.5q0 -35 35 -105q102 -205 213 -463q100 236 203 445q37 74 37 112q0 31 -22.5 48.5t-69.5 23.5q-16 53 -17 105q55 -4 203 -5q78 1 180 5q0 -47 -10 -103q-53 -12 -97 -59t-91 -148 l-271 -557v-168q0 -111 12.5 -159t45 -66t112.5 -27q14 -41 15 -108q-147 6 -310 6q-170 0 -321 -4q0 63 14 106q86 6 121 22.5t47 61.5t12 150v184l-325 643q-33 66 -65 92.5t-83 28.5q-12 41 -12 105z" />
<glyph unicode="Z" horiz-adv-x="1267" d="M102 82l35 57q174 289 350.5 586t321.5 557h-240q-88 0 -138 -20.5t-83 -78t-55 -171.5q-104 0 -146 22q20 72 31.5 168t11.5 187q176 -4 494 -5q270 0 410 5q25 -35 28 -89q-322 -592 -698 -1196h248q121 0 185.5 20.5t100 76t60.5 170.5q82 -6 139 -41 q-16 -70 -28.5 -163t-14.5 -173q-190 6 -532 6q-313 0 -455 -6q-25 43 -25 88z" />
<glyph unicode="[" horiz-adv-x="579" d="M72 -551v2071q71 -4 194 -4q129 0 211 4q25 -33 25 -103q-115 -10 -165 -24.5t-69.5 -50t-19.5 -113.5v-1516q0 -66 22.5 -97.5t69.5 -43.5t139 -16q12 -23 17.5 -46.5t5.5 -60.5q-68 4 -205 4q-147 0 -225 -4z" />
<glyph unicode="\" horiz-adv-x="792" d="M59 1452q23 10 82 10q29 0 45 -6l541 -1456q-31 -12 -96 -12q-23 0 -29 2z" />
<glyph unicode="]" horiz-adv-x="579" d="M78 -551q0 37 5 60.5t17 46.5q92 4 139.5 16t70 44t22.5 97v1516q0 78 -19.5 113.5t-69.5 50t-165 24.5q0 70 24 103q82 -4 211 -4q123 0 195 4v-2071q-78 4 -225 4q-137 0 -205 -4z" />
<glyph unicode="^" d="M82 885l420 526q49 25 123 19q90 -137 208.5 -309.5t208.5 -293.5q-35 -29 -100 -28q-18 0 -29 2l-348 497q-255 -301 -413 -522q-57 45 -70 109z" />
<glyph unicode="_" d="M57 -299q0 76 25 123h987q0 -29 -6 -64.5t-19 -56.5q-152 2 -268.5 2h-236.5l-322 -2z" />
<glyph unicode="`" horiz-adv-x="614" d="M117 1432q72 33 170 32q25 0 65 -4q53 -182 144 -352q-35 -18 -117 -14q-131 203 -262 338z" />
<glyph unicode="a" horiz-adv-x="1071" d="M88 209q0 174 160 246.5t391 105.5q0 106 -8 153.5t-35 80.5q-47 55 -121 55q-86 0 -126 -69.5t-46 -164.5q-96 0 -139 19q4 49 4 78q0 88 -14 157q84 39 186 62.5t192 23.5q172 0 261 -84q47 -49 67.5 -128.5t20.5 -219.5v-200q0 -66 9 -98.5t34.5 -47t79.5 -18.5l2 -29 q0 -45 -17 -84q-63 -4 -135 -21.5t-129 -43.5q-29 10 -43 38.5t-14 79.5q0 31 6 68q-29 -70 -80 -111q-81 -71 -223 -71h-4q-133 0 -206 58t-73 165zM338 258q0 -63 30.5 -96t77.5 -33q45 0 90.5 29.5t74 90t28.5 148.5v66q-145 -20 -223 -62.5t-78 -142.5z" />
<glyph unicode="b" horiz-adv-x="1177" d="M12 1303q0 63 21 96q76 0 179 21.5t142 47.5q51 -20 52 -96v-483q0 -49 -9 -111q18 31 35 47q37 49 111.5 90t165.5 41q184 0 288.5 -109.5t104.5 -332.5q0 -152 -66.5 -272.5t-188.5 -190t-280 -69.5q-143 0 -263 39.5t-185 103.5q25 29 36 84t11 158v790q0 53 -11.5 83 t-44 45t-98.5 18zM406 162q35 -35 74.5 -53.5t90.5 -18.5q107 0 191 87t84 300q0 106 -30 181t-78 112t-101 37q-96 0 -163.5 -90t-67.5 -279v-276z" />
<glyph unicode="c" horiz-adv-x="935" d="M76 465q0 127 52 239.5t155.5 182t244.5 69.5q201 0 326 -88q-18 -102 -18 -243q-41 -23 -127 -23q-8 117 -59.5 180.5t-131.5 63.5q-92 0 -145.5 -94.5t-53.5 -255.5q0 -156 75 -266.5t210 -110.5q66 0 123 25.5t98 72.5q41 -29 52 -78q-112 -157 -339 -157h-3 q-125 0 -229.5 54t-167 163.5t-62.5 265.5z" />
<glyph unicode="d" horiz-adv-x="1204" d="M76 424q0 152 67.5 272.5t189.5 190t279 69.5q68 0 160 -24v225q0 53 -11 83t-44 45t-99 18q0 63 21 96q76 0 179.5 21.5t142.5 47.5q53 -20 53 -96v-1059q0 -61 8 -93t34.5 -46t80.5 -14v-18q0 -59 -17 -95q-66 -4 -139.5 -21.5t-130.5 -43.5q-31 12 -44 35.5t-13 82.5 q0 49 14 107q-27 -49 -62 -94q-37 -49 -111.5 -90t-164.5 -41q-184 0 -288.5 109.5t-104.5 332.5zM332 461q0 -106 29.5 -181t77.5 -112t102 -37q96 0 163.5 90t67.5 279v276q-35 35 -75 53.5t-91 18.5q-106 0 -190 -87t-84 -300z" />
<glyph unicode="e" horiz-adv-x="1011" d="M76 467q0 139 55 249.5t157.5 175t237.5 64.5q201 0 299.5 -116.5t108.5 -313.5q-12 -51 -41 -84q-315 0 -561 -12q14 -141 82.5 -227t206.5 -86q70 0 137 27.5t116 78.5q19 -10 34.5 -34.5t17.5 -49.5q-74 -82 -168 -119.5t-215 -37.5q-229 0 -348 135t-119 350z M328 549h358q0 137 -45 216t-125 79t-131 -71t-57 -224z" />
<glyph unicode="f" horiz-adv-x="755" d="M70 807q0 72 28 111h131v75q0 152 62.5 258.5t165 159.5t225.5 53q131 0 225 -55q-9 -92 -9 -188q0 -32 1 -64q-55 -20 -151 -20q0 92 -36 147t-108 55t-102.5 -67.5t-30.5 -212.5v-141h217q0 -76 -20 -115q-117 0 -197 -25v-448q0 -88 18.5 -136.5t59.5 -68t115 -23.5 q14 -33 14 -108q-100 6 -289 6q-213 0 -311 -6q0 76 12 108q57 4 86 20.5t41 55.5t12 117v491q-84 20 -159 21z" />
<glyph unicode="g" horiz-adv-x="1087" d="M72 -246q0 72 39 127.5t112 85.5q-49 23 -71.5 62t-22.5 100q0 119 115 223q-141 88 -142 266q0 152 103.5 245t292.5 93q82 0 143 -18h363q16 -51 16 -143q-88 27 -197 36q45 -47 68.5 -104t23.5 -109q0 -145 -106.5 -238t-302.5 -93q-82 0 -150 18q-43 -43 -43 -80 q0 -35 28 -51t89.5 -21.5t192.5 -5.5q200 -2 289 -53t89 -184q0 -104 -70.5 -201.5t-197.5 -158t-287 -60.5q-199 0 -286.5 67.5t-87.5 196.5zM281 -197q0 -98 51 -144t172 -46q129 0 205.5 56.5t76.5 140.5q0 47 -23.5 71.5t-86 35.5t-182.5 11q-82 0 -158 11 q-31 -31 -43 -63t-12 -73zM346 645q0 -121 49 -186.5t137 -65.5q66 0 104 54.5t38 154.5q0 113 -49.5 183.5t-132.5 70.5q-70 0 -108 -59.5t-38 -151.5z" />
<glyph unicode="h" horiz-adv-x="1282" d="M63 1303q0 63 21 96q76 0 179.5 21.5t142.5 47.5q51 -20 51 -96v-518q0 -57 -17 -121q2 6 14.5 29.5t30.5 46.5q41 55 119 96t172 41q135 0 222 -81t87 -253v-331q0 -100 26 -139.5t87 -39.5q14 -42 14 -108q-92 6 -241 6q-78 0 -269 -6q0 74 15 108q68 0 98.5 41 t30.5 144v264q0 129 -45 183t-129 54q-55 0 -104.5 -36.5t-80 -111.5t-30.5 -185v-174q0 -102 28.5 -140.5t100.5 -38.5q14 -39 14 -108q-178 6 -264 6q-180 0 -270 -6q0 76 12 108q80 0 109.5 38t29.5 141v876q0 53 -11 83t-44 45t-99 18z" />
<glyph unicode="i" horiz-adv-x="673" d="M72 791q0 63 20 96q76 0 179.5 21.5t142.5 47.5q51 -20 51 -96v-579q0 -100 27.5 -138.5t97.5 -40.5q12 -39 12 -108q-98 6 -262 6q-174 0 -266 -6q0 71 12 108q82 2 110.5 39t28.5 140v364q0 53 -11 83t-44 45t-98 18zM178 1282q0 63 43 102t107 39q70 0 109.5 -36.5 t39.5 -102.5q0 -55 -43 -94t-110 -39q-64 0 -105 38t-41 93z" />
<glyph unicode="j" horiz-adv-x="608" d="M29 -426q111 123 151.5 224.5t40.5 250.5v596q0 53 -10 83t-43 45t-98 18q0 63 20 96q76 0 178.5 21.5t141.5 47.5q53 -20 53 -96v-764q0 -213 -110.5 -367.5t-264.5 -238.5q-25 10 -41 32.5t-18 51.5zM176 1282q0 63 43 102t107 39q70 0 109.5 -36.5t39.5 -102.5 q0 -55 -43 -94t-110 -39q-64 0 -105 38t-41 93z" />
<glyph unicode="k" horiz-adv-x="1183" d="M63 1303q0 63 21 96q76 0 179.5 21.5t142.5 47.5q51 -20 51 -96v-846l147 136q115 100 115 143q0 31 -57 33q-16 55 -17 104q78 -4 252 -4q123 0 193 4q0 -57 -19 -106q-70 -4 -125 -30t-129 -93l-162 -148q115 -113 297 -340q54 -67 90.5 -89.5t102.5 -29.5 q0 -68 -17 -106q-180 0 -297 -18q-55 88 -161.5 221t-212.5 248v-170q0 -100 24.5 -138.5t87.5 -40.5q12 -39 13 -108q-98 6 -254 6q-170 0 -262 -6q0 72 12 108q82 2 110.5 39t28.5 140v876q0 53 -11 83t-44 45t-99 18z" />
<glyph unicode="l" horiz-adv-x="657" d="M63 1303q0 63 21 96q76 0 179.5 21.5t142.5 47.5q51 -20 51 -96v-1091q0 -100 27.5 -138.5t97.5 -40.5q12 -39 12 -108q-98 6 -262 6q-174 0 -266 -6q0 71 12 108q82 2 110.5 39t28.5 140v882q0 74 -30.5 105.5t-123.5 34.5z" />
<glyph unicode="m" horiz-adv-x="1902" d="M72 791q0 53 22 96q74 4 170 24.5t142 44.5q53 -18 53 -96q0 -41 -15 -133q29 70 48 90q43 55 119.5 96t168.5 41q94 0 166 -41t107 -125q12 -23 16 -61q20 55 49 84q43 55 116 94t163 39q143 0 225 -81t82 -259v-297q0 -84 11 -127t35 -58.5t69 -19.5q12 -36 12 -108 q-94 6 -240 6q-164 0 -268 -6q0 72 12 108q51 2 79 19.5t39 58.5t11 121v252q0 129 -43 182t-123 53q-90 0 -151.5 -85t-61.5 -248v-172q0 -102 28 -139.5t104 -41.5q12 -35 12 -108q-100 6 -262 6q-154 0 -265 -6q0 74 13 108q53 4 80.5 20.5t39 58.5t11.5 126v258 q0 127 -43 179.5t-127 52.5q-55 0 -103.5 -38t-78 -114t-29.5 -184v-178q0 -72 11 -109t39 -52.5t81 -19.5q12 -37 12 -108q-100 6 -270 6q-168 0 -264 -6q0 72 12 106q82 6 110.5 42t28.5 139v346q0 63 -10 95t-43 48t-100 21z" />
<glyph unicode="n" horiz-adv-x="1290" d="M74 -6q0 76 12 108q80 0 109.5 38t29.5 141v354q0 57 -10 89t-43 48t-98 19q0 63 20 96q86 2 178.5 23.5t141.5 45.5q51 -20 51 -102q0 -57 -16 -121q2 6 14 29.5t31 46.5q41 55 118.5 96t171.5 41q135 0 223.5 -81t88.5 -253v-331q0 -102 25.5 -140.5t84.5 -38.5 q15 -42 15 -108q-92 6 -242 6q-78 0 -268 -6q0 74 14 108q68 0 98.5 41t30.5 144v264q0 129 -45 183t-129 54q-55 0 -104.5 -36.5t-80 -111.5t-30.5 -185v-174q0 -102 28.5 -140.5t100.5 -38.5q14 -39 14 -108q-178 6 -262 6q-182 0 -272 -6z" />
<glyph unicode="o" horiz-adv-x="1132" d="M76 465q0 145 63.5 257t175 173t252.5 61q231 0 360.5 -132t129.5 -351q0 -145 -61.5 -256t-173 -173t-259.5 -62q-227 0 -357 130t-130 353zM334 516q0 -195 67.5 -307.5t184.5 -112.5q104 0 159.5 93.5t55.5 246.5q0 125 -35 217t-93.5 141.5t-127.5 49.5 q-102 0 -156.5 -90t-54.5 -238z" />
<glyph unicode="p" horiz-adv-x="1236" d="M74 -502q0 72 10 109q57 4 87 20.5t42 56.5t12 115v836q0 57 -10 89t-43 48t-98 19q0 63 20 96q86 2 178.5 23.5t141.5 45.5q51 -20 51 -102q0 -29 -14 -86q18 35 41 57q37 49 111.5 90t164.5 41q184 0 288.5 -107.5t104.5 -322.5q0 -158 -66.5 -281.5t-188.5 -193 t-281 -69.5h-5q-67 0 -155 24v-172q0 -88 19.5 -136t60.5 -67.5t114 -23.5q12 -35 13 -109q-102 6 -289 6q-215 0 -309 -6zM465 162q35 -35 75 -53.5t91 -18.5q106 0 190 87t84 300q0 147 -56 238.5t-153 91.5q-96 0 -163.5 -90t-67.5 -279v-276z" />
<glyph unicode="q" horiz-adv-x="1175" d="M76 430q0 147 66.5 267t187.5 189.5t274 69.5q147 0 261 -36.5t190 -104.5q-23 -43 -33 -99.5t-10 -156.5v-749q0 -82 11 -123t40 -58.5t86 -23.5q12 -37 12 -107q-92 6 -289 6q-190 0 -294 -6q0 72 12 107q76 4 112.5 22.5t52 59.5t15.5 120v211q0 96 29 211 q-33 -78 -66 -114q-45 -51 -118.5 -84t-153.5 -33q-109 0 -196 50t-138 147.5t-51 234.5zM332 461q0 -168 64.5 -246t160.5 -78q51 0 99.5 34t81 110.5t32.5 197.5v297q-23 29 -68 50.5t-92 21.5q-125 0 -201.5 -100.5t-76.5 -286.5z" />
<glyph unicode="r" horiz-adv-x="919" d="M74 -6q0 76 10 108q57 4 87 20.5t42 56.5t12 116v340q0 57 -10 89t-43 48t-98 19q0 63 20 96q86 2 178.5 23.5t141.5 45.5q51 -20 51 -102q0 -45 -9.5 -95t-19.5 -100q6 18 20.5 57.5t26.5 57.5q47 76 111.5 121t142.5 45q76 0 144 -49q-9 -53 -14 -131q-4 -56 -4 -103 q0 -19 1 -36q-23 -10 -64.5 -16.5t-78.5 -6.5q-4 86 -27.5 119t-68.5 33q-33 0 -71 -38t-63.5 -100.5t-25.5 -132.5v-149q0 -88 19.5 -136.5t60.5 -68t114 -23.5q12 -35 13 -108q-100 6 -289 6q-213 0 -309 -6z" />
<glyph unicode="s" horiz-adv-x="913" d="M80 55q6 55 6 140q0 53 -4 114q43 29 135 29q14 -119 72.5 -180.5t152.5 -61.5q72 0 114 32t42 83t-41 86t-168 86q-113 43 -175 82t-93 93t-31 138t52.5 142.5t135 88t173.5 29.5q98 0 172.5 -16t140.5 -51q-2 -27 -2 -82q0 -76 8 -133q-49 -31 -129 -31 q-8 86 -65.5 147.5t-147.5 61.5q-55 0 -88 -27.5t-33 -72.5q0 -35 15.5 -58.5t64.5 -52.5t154 -70q115 -45 178 -87t91 -91t28 -121q0 -133 -112 -211.5t-292 -78.5q-121 0 -198.5 17t-155.5 56z" />
<glyph unicode="t" horiz-adv-x="745" d="M33 807q0 66 20 111h129v260q53 10 107.5 35.5t91.5 56.5q25 -10 33 -31.5t8 -85.5v-235h260q0 -57 -18 -111q-135 -2 -242 -29v-463q0 -111 28.5 -157.5t84.5 -46.5q74 0 131 43q27 -37 30 -86q-37 -37 -108.5 -61.5t-143.5 -24.5q-135 0 -198.5 69.5t-63.5 224.5v506 q-66 23 -149 25z" />
<glyph unicode="u" horiz-adv-x="1206" d="M33 791q0 63 16 96q84 2 169 22.5t136 46.5q51 -20 52 -102v-446q0 -139 33.5 -204t113.5 -65q98 0 159.5 87t61.5 251v168q0 57 -11 89t-43 48.5t-97 18.5q0 35 3 56.5t13 39.5q98 2 186 19.5t138 39.5q51 -20 51 -102v-541q0 -90 23.5 -120.5t101.5 -32.5v-18 q0 -59 -17 -95q-66 -4 -139.5 -21.5t-130.5 -43.5q-31 12 -45 35.5t-14 82.5q0 39 8 88q-23 -53 -68 -98q-51 -51 -115.5 -75.5t-150.5 -24.5q-152 0 -226.5 85t-74.5 285v275q0 59 -8 90t-37 47t-88 19z" />
<glyph unicode="v" horiz-adv-x="1112" d="M29 944q86 -6 243 -6q178 0 277 6q0 -47 -17 -104q-63 -6 -88.5 -17.5t-25.5 -38.5t28 -84q90 -199 185 -450q59 160 114 287l37 88q31 84 31 127q0 41 -24.5 61.5t-73.5 24.5q-23 57 -23 106q80 -6 195 -6q118 0 198 6q0 -61 -20 -108q-51 -10 -82 -49t-76 -148 l-278 -635q-40 -23 -107 -23q-12 0 -26 1q-43 109 -151.5 350t-174.5 379q-37 74 -60.5 96t-66.5 29q-14 51 -14 108z" />
<glyph unicode="w" horiz-adv-x="1597" d="M29 942q135 -4 227 -4q141 0 258 6q0 -74 -14 -108q-51 -4 -71.5 -17.5t-20.5 -40.5q0 -23 16 -71q68 -178 139 -422l256 651q33 12 105 12q131 -299 270 -665l100 321q25 80 25 127q0 49 -25.5 72.5t-76.5 32.5q-18 53 -19 108q78 -6 184 -6q113 0 189 6q0 -61 -19 -108 q-47 -12 -74.5 -54.5t-68.5 -169.5l-207 -612q-39 -18 -133 -18q-29 68 -82 202q-100 240 -174 428l-256 -612q-37 -18 -129 -18q-164 475 -268 733q-23 57 -48.5 83.5t-68.5 37.5q-14 41 -14 106z" />
<glyph unicode="x" horiz-adv-x="1116" d="M59 -4q0 74 15 106q55 4 101 41t124 150l123 176q-76 117 -154 219q-72 94 -103.5 121t-78.5 31q-16 45 -16 102q135 -4 245 -4q188 0 265 4q0 -53 -13 -102q-37 -2 -54 -11.5t-17 -27.5q0 -35 51 -107q45 -61 78 -110l73 112q49 74 50 105q0 18 -14.5 26.5t-47.5 12.5 q-16 35 -16 102q115 -4 190 -4q76 0 174 4q0 -51 -14 -102q-49 -4 -81 -29t-87 -106l-145 -207l157 -222q68 -102 102.5 -137t77.5 -37q15 -34 15 -104q-39 2 -107 2h-110q-215 0 -293 -4q0 31 2 59.5t8 46.5q74 4 74 43q0 31 -39 91l-37 57l-55 82l-68 -99 q-57 -88 -57 -129t57 -45q14 -41 15 -106q-72 4 -216 4q-102 0 -174 -4z" />
<glyph unicode="y" horiz-adv-x="1130" d="M29 942q156 -4 254 -4q125 0 292 4q0 -63 -16 -106q-63 -10 -91 -29t-28 -53q0 -39 41 -125q80 -156 164 -383l4 8l142 356q32 78 32 126q0 46 -26.5 66.5t-83.5 33.5q-16 41 -17 106q63 -4 203 -4q142 0 203 6q0 -72 -17 -108q-53 -14 -82.5 -51t-74.5 -144l-301 -717 q-76 -184 -134.5 -276t-110.5 -125t-124 -33q-57 0 -102 18.5t-72 47.5q-6 25 -6 61q0 59 14 107q84 -18 160 -19q68 0 116 25.5t85 85.5q12 20 71 141q-199 451 -299 659q-59 127 -95 167t-87 53q-14 41 -14 106z" />
<glyph unicode="z" horiz-adv-x="1036" d="M98 96q111 150 271.5 377t244.5 356h-157q-70 0 -107 -16t-58.5 -60t-39.5 -135q-12 -1 -23 -1q-69 0 -116 22q18 139 18 305q127 -6 391 -6q250 0 373 6q29 -35 29 -100q-98 -147 -252 -364.5t-271 -370.5h215q74 0 111 18t54.5 66.5t25.5 146.5q80 0 135 -16 q0 -189 16 -287q-10 -18 -28.5 -29.5t-44.5 -11.5q-205 4 -381 4q-223 0 -371 -4q-14 20 -24.5 47t-10.5 53z" />
<glyph unicode="{" horiz-adv-x="724" d="M72 459q0 57 10 82q111 37 152.5 104.5t44.5 167.5q0 35 -4.5 82t-6.5 70q-12 106 -12 163q2 141 74.5 240.5t275.5 157.5q25 -31 25 -80q-98 -33 -136 -96.5t-38 -153.5q0 -51 10 -115.5t12 -83.5q25 -135 25 -200q0 -113 -59.5 -187.5t-208.5 -105.5q152 -35 211 -115 t59 -201q0 -66 -21 -204q-20 -135 -20 -197q0 -98 39 -163.5t139 -96.5q2 -10 2 -31q0 -37 -18 -57q-211 53 -289 162.5t-80 265.5q0 53 8 156q8 98 8 143q-2 111 -45 183.5t-157 109.5z" />
<glyph unicode="|" horiz-adv-x="370" d="M123 -498v1934q39 25 125 24q0 -238 -2 -383l-2 -598l2 -575q2 -143 2 -379q-16 -10 -54 -16.5t-71 -6.5z" />
<glyph unicode="}" horiz-adv-x="724" d="M78 -500q0 18 2 27q100 31 140 96.5t40 163.5q0 61 -20 197q-20 139 -21 204q0 121 59.5 201t208.5 115q-150 31 -208 105.5t-58 187.5q0 66 25 200q2 18 12 83t10 116q0 90 -39 153.5t-137 96.5q0 47 27 80q201 -57 274.5 -156.5t75.5 -241.5q0 -57 -12 -163 q-2 -23 -6.5 -70t-4.5 -82q0 -98 43 -166.5t154 -105.5q10 -25 10 -82q-117 -37 -159.5 -110t-42.5 -183q0 -45 8 -143q8 -102 8 -156q-2 -156 -80 -265.5t-289 -162.5q-20 26 -20 61z" />
<glyph unicode="~" d="M90 446q139 221 291 222q47 0 94 -16.5t111 -49.5q63 -31 106 -46t86 -15q92 0 183 102q45 -6 75 -43q-135 -213 -276 -213q-47 0 -90 17.5t-107 52.5q-66 35 -105.5 51t-84.5 16q-113 0 -221 -141q-27 12 -41.5 26.5t-20.5 36.5z" />
<glyph unicode="&#xa1;" horiz-adv-x="841" d="M272 811q0 66 41 105.5t105 39.5q68 0 105.5 -36.5t37.5 -98.5q0 -61 -43 -101t-108 -40q-61 0 -99.5 41t-38.5 90zM281 -461q0 18 2 29q53 508 71 883q43 16 125 16q35 -516 90 -918q-57 -10 -130.5 -31.5t-114.5 -41.5q-43 14 -43 63z" />
<glyph unicode="&#xa2;" horiz-adv-x="935" d="M76 465q0 119 46 225.5t137 178t216 85.5v295q86 0 125 -24l-4 -271q158 -14 258 -86q-18 -102 -18 -243q-41 -23 -127 -23q-6 86 -35 143.5t-78 81.5v-708h8q66 0 123 25.5t98 72.5q41 -29 52 -78q-99 -135 -281 -153l4 -273q-33 0 -70.5 6.5t-54.5 16.5v250 q-174 18 -286.5 142t-112.5 337zM319 496q0 -113 40 -205t116 -137v686q-74 -23 -115 -112t-41 -232z" />
<glyph unicode="&#xa3;" horiz-adv-x="1163" d="M100 66q123 106 179.5 201t56.5 220q0 61 -12 107q-104 0 -207 -4q0 68 24 117h142q-45 98 -64.5 159.5t-19.5 153.5q0 104 50 191t148.5 139.5t233.5 52.5q213 0 340 -70q-6 -61 -6 -131q0 -41 4 -147q-61 -29 -154 -25q-10 139 -60 198.5t-151 59.5q-72 0 -118 -55 t-46 -141q0 -63 18.5 -111.5t53.5 -110.5q27 -45 43 -81.5t25 -81.5h233q0 -72 -22 -115l-211 4q-25 -180 -205 -381q156 106 270 107q51 0 92 -14.5t86 -39.5q57 -33 88 -32q43 0 80 43q60 -7 105 -56q-57 -57 -107.5 -122.5t-77.5 -118.5q-88 0 -153 28q-29 12 -78 37 q-55 31 -101.5 46.5t-111.5 15.5q-82 0 -152.5 -30t-138.5 -95q-47 23 -76 82z" />
<glyph unicode="&#xa4;" horiz-adv-x="1110" d="M123 860q39 39 92 45l102 -98q104 78 238 78q123 0 223 -72l99 100q33 -8 51 -18t37 -33l-117 -117q72 -94 72 -217q0 -131 -76 -231l143 -139q-35 -41 -96 -47l-119 118q-49 -35 -106.5 -54t-110.5 -19q-119 0 -213 63l-109 -108q-33 2 -54 11t-42 32l129 135 q-41 49 -63.5 111.5t-22.5 127.5q0 121 68 207zM309 543q0 -70 35 -135.5t94.5 -107.5t128.5 -42q103 0 164.5 69.5t61.5 186.5q0 68 -34 132.5t-92.5 104.5t-129.5 40q-102 0 -165 -68t-63 -180z" />
<glyph unicode="&#xa5;" horiz-adv-x="1292" d="M43 1389q135 -4 250 -5q223 0 293 5q0 -59 -11 -103q-47 -4 -67.5 -19.5t-20.5 -43.5q0 -35 35 -105q102 -205 213 -463q100 236 203 445q37 74 37 112q0 31 -22.5 48.5t-69.5 23.5q-16 53 -17 105q55 -4 203 -5q78 1 180 5q0 -47 -10 -103q-53 -12 -97 -59t-91 -148 l-146 -299h203q0 -31 -5 -55.5t-18 -58.5l-235 2l-70 -146v-4h324q0 -57 -25 -112h-299v-52q0 -111 12.5 -159t45 -66t112.5 -27q14 -41 15 -108q-147 6 -310 6q-170 0 -321 -4q0 63 14 106q86 6 121 22.5t47 61.5t12 150v70h-325q0 68 22 112h303v2l-73 148l-240 -2 q0 72 21 114h161l-194 383q-33 66 -65 92.5t-83 28.5q-12 41 -12 105z" />
<glyph unicode="&#xa6;" horiz-adv-x="368" d="M123 334q27 16 54.5 21t68.5 5q-4 -139 -4 -415q0 -279 4 -418q-16 -10 -54 -17.5t-69 -7.5v832zM123 659v777q45 25 123 24q-4 -129 -4 -389q0 -258 4 -387q-18 -10 -55 -17.5t-68 -7.5z" />
<glyph unicode="&#xa7;" horiz-adv-x="1128" d="M106 481q0 121 67 209t177 135q-84 68 -116.5 145t-32.5 175q0 86 44 158.5t122.5 115.5t181.5 43q174 0 291 -76q-6 -51 -6 -122q0 -68 6 -127q-55 -18 -121 -19q-23 129 -66 180.5t-108 51.5q-74 0 -120 -43t-46 -105q0 -49 17.5 -85t73.5 -77t169 -92 q139 -63 218 -123.5t114 -136.5t35 -180q0 -127 -73 -219t-194 -139q86 -70 122 -145t36 -177q0 -141 -91 -232.5t-263 -91.5q-113 0 -183.5 23.5t-128.5 66.5q4 90 5 140q0 70 -7 135q53 16 121 16q16 -154 68.5 -211t132.5 -57q78 0 123 38t45 105q0 55 -19.5 93t-80 80 t-185.5 106q-180 90 -254 191.5t-74 250.5zM295 553q0 -55 20.5 -100t80 -92.5t169.5 -104.5q12 -6 49 -27q109 21 155 75t46 122q0 55 -22.5 98t-88 92.5t-194.5 110.5l-45 23q-88 -23 -129 -75t-41 -122z" />
<glyph unicode="&#xa8;" horiz-adv-x="614" d="M-47 1196q0 57 33.5 96t101.5 39q70 0 104.5 -35.5t34.5 -95.5q0 -53 -38.5 -89t-96.5 -36q-61 0 -100 35t-39 86zM383 1210q0 55 39 88t100 33q59 0 99.5 -34.5t40.5 -86.5q0 -57 -33 -96t-101 -39q-69 0 -107 37t-38 98z" />
<glyph unicode="&#xa9;" horiz-adv-x="1648" d="M123 471q0 195 93 355.5t254 254t355 93.5q193 0 353.5 -93.5t254 -255t93.5 -354.5t-93.5 -353.5t-254 -254.5t-353.5 -94q-195 0 -356.5 93t-253.5 253.5t-92 355.5zM225 471q0 -168 79 -304t216 -215t305 -79q166 0 303.5 79t217 216t79.5 303t-79.5 303t-217 217 t-303.5 80t-303 -80t-217 -217t-80 -303zM408 467q0 137 55 241.5t154.5 162t228.5 57.5q88 0 152.5 -19.5t140.5 -64.5q-14 -86 -15 -228q-39 -18 -104 -18q-20 223 -205 223q-96 0 -140 -87t-44 -238q0 -154 60.5 -258.5t182.5 -104.5q133 0 228 96q33 -25 41 -67 q-115 -152 -334 -152q-106 0 -197.5 53.5t-147.5 157t-56 246.5z" />
<glyph unicode="&#xaa;" horiz-adv-x="892" d="M90 913q0 121 108.5 179.5t305.5 89.5q0 76 -6 105.5t-25 51.5q-31 43 -86 43q-51 0 -76.5 -49t-31.5 -125q-88 0 -127 15q2 14 2 45q0 72 -13 123q137 78 289 77q86 0 136 -16t85 -53q37 -39 50.5 -91.5t13.5 -158.5v-150q0 -72 16.5 -94t75.5 -24q4 -57 -14 -93 q-117 -4 -224 -53q-53 17 -53 76q0 29 10 74q-12 -49 -61 -94q-63 -53 -160 -54q-106 0 -160.5 45t-54.5 131zM303 952q0 -47 19.5 -68.5t50.5 -21.5q51 0 91 51.5t40 145.5v41q-98 -14 -149.5 -45t-51.5 -103z" />
<glyph unicode="&#xab;" horiz-adv-x="1040" d="M123 477q0 47 18 96q141 121 295 281q61 -6 99 -37q-150 -182 -209 -274q88 -164 194 -305q-20 -53 -69 -84q-164 172 -328 323zM512 471q0 61 16 100q109 109 246 271q59 -4 98 -39q-98 -139 -172 -266q90 -172 166 -291q-8 -23 -29.5 -44.5t-50.5 -35.5 q-143 172 -274 305z" />
<glyph unicode="&#xac;" d="M106 598q0 29 6.5 66.5t14.5 58.5h893v-475q-51 -31 -117 -31v385h-313q-313 0 -484 -4z" />
<glyph unicode="&#xad;" horiz-adv-x="858" d="M123 446q0 39 9 85.5t24 76.5h579q1 -90 -26 -151q-381 0 -586 -11z" />
<glyph unicode="&#xae;" horiz-adv-x="1056" d="M123 1198q0 113 54 205t147.5 146.5t205.5 54.5q113 0 205 -54.5t145.5 -146.5t53.5 -205t-53.5 -206t-145.5 -146t-205 -53t-206 53t-147 146t-54 206zM209 1198q0 -88 42 -161.5t115.5 -115.5t163.5 -42q91 0 163.5 42t113.5 115.5t41 161.5t-42 162t-115 116t-161 42 q-90 0 -163.5 -42t-115.5 -116t-42 -162zM395 993v404q66 18 142 18q80 0 117.5 -30.5t37.5 -92.5q0 -49 -21.5 -86t-68.5 -53q64 -58 109 -152q-31 -12 -64 -12q-20 0 -31 2q-33 86 -84 146h-49v-144q-20 -6 -45 -6q-23 0 -43 6zM483 1196q29 -4 41 -4q78 0 78 82 q0 43 -19.5 63.5t-52.5 20.5q-14 0 -47 -8v-154z" />
<glyph unicode="&#xaf;" horiz-adv-x="614" d="M-72 1186q0 20 5.5 53t13.5 53h739q0 -47 -18 -96q-326 0 -740 -10z" />
<glyph unicode="&#xb0;" horiz-adv-x="815" d="M123 1171q0 113 79 188t201 75q137 0 213 -73t76 -187q0 -115 -80 -191t-209 -76t-204.5 74t-75.5 190zM289 1210q0 -92 42 -150.5t101 -58.5q43 0 68.5 38t25.5 112q0 88 -35.5 140t-97.5 52q-45 0 -74.5 -39.5t-29.5 -93.5z" />
<glyph unicode="&#xb1;" d="M111 82q0 31 6 67.5t14 51.5h885q0 -41 -4 -66.5t-17 -48.5q-141 2 -411 2q-295 0 -473 -6zM184 569q0 29 5.5 67t13.5 52h303q0 154 -4 297q25 12 53.5 16.5t71.5 4.5v-318h315q0 -80 -18 -117h-101h-196v-282q-16 -8 -55.5 -14.5t-71.5 -6.5l6 303q-184 0 -322 -2z" />
<glyph unicode="&#xb2;" horiz-adv-x="768" d="M80 913q70 70 201 185q82 74 114.5 129t32.5 125q0 51 -25.5 84.5t-66.5 33.5q-45 0 -66.5 -43t-33.5 -153q-76 0 -119 14q6 49 6 107q0 72 -8 114q63 33 125.5 47.5t142.5 14.5q104 0 177 -45t73 -144q0 -74 -30 -125t-95 -106l-178 -150h135q57 0 83.5 24t29.5 81 q61 0 96 -10q0 -145 14 -219q-16 -41 -72 -41q-53 0 -90 2l-178 2l-158 -2q-35 -2 -90 -2q-20 32 -20 77z" />
<glyph unicode="&#xb3;" horiz-adv-x="778" d="M70 653q18 45 51 76q20 -14 61 -25.5t94 -11.5q82 0 145.5 55.5t63.5 149.5q0 74 -43 122t-118 48q-25 0 -45 -6q-35 27 -43 69q143 174 210 271h-114q-57 0 -83 -21.5t-54 -89.5q-25 0 -49.5 6.5t-39.5 14.5q18 109 19 243q47 -2 264 -2q199 0 236 2q10 -20 14 -36.5 t4 -42.5q-109 -119 -235 -295q117 6 197.5 -65t80.5 -200q0 -90 -48 -163.5t-139 -117.5t-216 -44q-76 0 -129.5 19.5t-83.5 43.5z" />
<glyph unicode="&#xb4;" horiz-adv-x="614" d="M119 1108q94 195 131 342q78 29 168 25q37 0 78 -13q-141 -168 -269 -375q-63 -4 -108 21z" />
<glyph unicode="&#xb5;" horiz-adv-x="1257" d="M72 791q0 63 18 96q84 2 168 22.5t135 46.5q53 -20 53 -102v-448q0 -152 36 -212.5t124 -60.5q53 0 100.5 38t77 116t29.5 190v168q0 57 -11 89t-43 48.5t-97 18.5q0 35 3 56.5t15 39.5q98 2 186 19.5t135 39.5q53 -20 54 -102v-541q0 -63 9 -94t37.5 -47t88.5 -18 q0 -70 -16 -107q-68 0 -150 -19.5t-131 -45.5q-57 29 -57 114q0 49 10 103q-25 -63 -74 -109q-106 -100 -258 -100q-63 0 -113 12v-84q0 -176 29 -274q-61 -33 -102 -63t-92 -81q-35 14 -52 58q10 63 15.5 117.5t5.5 168.5v791q0 59 -8.5 90t-37 47t-87.5 19z" />
<glyph unicode="&#xb6;" horiz-adv-x="1157" d="M74 1004q0 176 133 281.5t411 105.5q70 0 177 -5l133 -2q127 1 186 7q0 -68 -14 -107q-59 -2 -89 -21.5t-39 -57.5t-9 -111v-1579q-45 -25 -119 -25v1792q-43 6 -115 10v-1777q-45 -25 -119 -25v1145q-23 -4 -65 -4q-236 0 -353.5 85t-117.5 288zM319 1014 q0 -139 78 -211t191 -72h22v563q-160 -6 -225.5 -68.5t-65.5 -211.5z" />
<glyph unicode="&#xb7;" horiz-adv-x="534" d="M123 528q0 61 43 101.5t108 40.5q61 0 99.5 -41t38.5 -90q0 -66 -41 -106t-105 -40q-67 0 -105 37t-38 98z" />
<glyph unicode="&#xb8;" horiz-adv-x="614" d="M154 -129l110 162h115l-96 -131q84 -14 132 -64.5t48 -124.5q0 -96 -88 -152.5t-203 -56.5q-14 29 -14 76q66 0 113.5 29t47.5 78q0 45 -36.5 72.5t-92.5 27.5q-37 33 -36 84z" />
<glyph unicode="&#xb9;" horiz-adv-x="657" d="M109 834q0 63 10 102q61 2 84.5 30.5t23.5 98.5v256q0 68 -25.5 99.5t-84.5 33.5q-8 43 -8 105q68 -6 223 -7q137 0 217 7q0 -63 -10 -105q-59 -2 -85 -33.5t-26 -99.5v-256q0 -70 24.5 -98.5t86.5 -30.5q10 -55 10 -102q-94 6 -217 6q-125 0 -223 -6z" />
<glyph unicode="&#xba;" horiz-adv-x="876" d="M76 1092q0 115 47 200.5t130 130.5t187 45q174 0 266.5 -99t92.5 -263q0 -172 -99.5 -273.5t-267.5 -101.5t-262 97.5t-94 263.5zM295 1137q0 -141 42 -226.5t118 -85.5q61 0 95 68t34 178q0 143 -47.5 224t-114.5 81q-61 0 -94 -65.5t-33 -173.5z" />
<glyph unicode="&#xbb;" horiz-adv-x="1054" d="M170 805q16 16 46 26.5t60 12.5q113 -129 248 -256q16 -35 17 -96q-147 -168 -269 -322q-51 27 -82 78q86 131 156 256q-61 119 -176 301zM518 819q18 14 45 23.5t53 9.5q139 -131 297 -262q18 -37 19 -94q-154 -152 -322 -336q-45 25 -69 76q102 129 188 266 q-80 131 -211 317z" />
<glyph unicode="&#xbc;" horiz-adv-x="1710" d="M84 1323q0 59 10 100q111 6 196 23.5t165 48.5q30 -8 40.5 -26.5t10.5 -61.5v-578q0 -72 12 -103.5t41 -42.5t98 -17q12 -39 13 -95q-168 4 -287 4t-279 -4q0 61 11 95q74 6 107.5 17t49 43t15.5 103v361q0 61 -12.5 88t-53.5 36t-137 9zM342 37l1051 1427 q27 -4 57.5 -20.5t48.5 -34.5l-1048 -1425q-35 6 -65.5 21t-43.5 32zM911 348q139 170 241.5 303t196.5 271l35 2q59 0 105 -17v-508h86q29 0 44 -6t27 -20q-27 -49 -36 -133h-121v-17q0 -55 10 -80.5t30.5 -33t63.5 -9.5q10 -45 10 -106q-82 6 -229 6q-156 0 -229 -6 q0 82 10 106q78 2 106.5 26t28.5 97v15q-180 -2 -336 -15q-43 53 -43 125zM1083 399h207v285z" />
<glyph unicode="&#xbd;" horiz-adv-x="1966" d="M84 1323q0 59 10 100q111 6 196 23.5t165 48.5q30 -8 40.5 -26.5t10.5 -61.5v-578q0 -72 12 -103.5t41 -42.5t98 -17q12 -39 13 -95q-168 4 -287 4t-279 -4q0 61 11 95q74 6 107.5 17t49 43t15.5 103v361q0 61 -12.5 88t-53.5 36t-137 9zM342 37l1051 1427 q27 -4 57.5 -20.5t48.5 -34.5l-1048 -1425q-35 6 -65.5 21t-43.5 32zM1204 111q129 154 282 317q63 66 92 120t29 118q0 66 -29.5 100.5t-85.5 34.5q-59 0 -87.5 -46t-41.5 -169q-78 0 -139 20q10 68 10 135q0 59 -6 117q129 61 310 62q158 0 236.5 -51.5t78.5 -161.5 q0 -80 -45 -149t-148 -155q-63 -55 -111 -100t-91 -92h155q59 0 89 9t43.5 34t21.5 80q70 4 125 -17q-4 -77 -4 -106q0 -92 16 -162q-25 -53 -92 -53q-14 0 -90 2t-166 2q-117 0 -193 -2l-127 -2q-33 41 -32 115z" />
<glyph unicode="&#xbe;" horiz-adv-x="1705" d="M59 629q4 53 35 84q68 -45 170 -45q96 0 155.5 43t59.5 116q0 63 -45 100.5t-115 37.5q-27 0 -51 -9q-14 16 -24.5 42t-10.5 49l39 43q127 139 177 202h-132q-61 0 -88.5 -19.5t-52.5 -84.5q-68 0 -100 24q18 94 18 277q86 -6 283 -6q131 0 278 6q29 -45 27 -94 q-152 -178 -246 -291q125 -4 200 -63.5t75 -174.5q0 -139 -109.5 -222t-296.5 -83q-92 0 -153.5 19.5t-92.5 48.5zM338 37l1051 1427q27 -4 57.5 -20.5t48.5 -34.5l-1048 -1425q-35 6 -65.5 21t-43.5 32zM907 348q139 170 241.5 303t196.5 271l35 2q59 0 105 -17v-508h86 q29 0 44 -6t27 -20q-27 -49 -36 -133h-121v-17q0 -55 10 -80.5t30.5 -33t63.5 -9.5q10 -45 10 -106q-82 6 -229 6q-156 0 -229 -6q0 82 10 106q78 2 106.5 26t28.5 97v15q-180 -2 -336 -15q-43 53 -43 125zM1079 399h207v285z" />
<glyph unicode="&#xbf;" horiz-adv-x="1099" d="M170 -268q0 92 39 158.5t115 152.5q76 84 114.5 151.5t38.5 159.5q0 31 -7 74t-17 76q43 23 104 22q41 -29 71.5 -100.5t30.5 -153.5q0 -96 -35.5 -159.5t-103.5 -137.5q-55 -61 -82.5 -108t-27.5 -109q0 -82 43 -131t102 -49q70 0 108.5 61.5t55.5 206.5q88 0 141 -28 q-6 -78 -6 -137q0 -55 6 -117q-152 -90 -344 -90q-162 0 -254 67.5t-92 190.5zM352 791q0 76 46 120.5t120 44.5q78 0 121 -42t43 -111q0 -72 -48 -117t-124 -45q-70 0 -114 46t-44 104z" />
<glyph unicode="&#xc0;" horiz-adv-x="1449" d="M43 -6q0 63 16 106q53 10 83 52.5t81 164.5l426 1069q43 10 101 11l479 -1086q39 -86 63.5 -128t46 -59.5t54.5 -21.5q14 -49 14 -108q-80 6 -258 6q-190 0 -268 -6q0 70 16 108q51 6 74.5 20.5t23.5 43.5q0 31 -28 94l-68 160q-317 0 -520 -10l-41 -107 q-27 -68 -27 -113q0 -41 24.5 -62.5t76.5 -25.5q16 -49 16 -108q-70 6 -209 6q-59 0 -176 -6zM424 524h430l-133 312q-55 123 -94 243q-37 -119 -84 -243zM447 1759q39 20 97 28.5t118 4.5q55 -141 129 -274q-47 -16 -117 -17q-121 152 -227 258z" />
<glyph unicode="&#xc1;" horiz-adv-x="1449" d="M43 -6q0 63 16 106q53 10 83 52.5t81 164.5l426 1069q43 10 101 11l479 -1086q39 -86 63.5 -128t46 -59.5t54.5 -21.5q14 -49 14 -108q-80 6 -258 6q-190 0 -268 -6q0 70 16 108q51 6 74.5 20.5t23.5 43.5q0 31 -28 94l-68 160q-317 0 -520 -10l-41 -107 q-27 -68 -27 -113q0 -41 24.5 -62.5t76.5 -25.5q16 -49 16 -108q-70 6 -209 6q-59 0 -176 -6zM424 524h430l-133 312q-55 123 -94 243q-37 -119 -84 -243zM610 1518q68 129 117 266q66 16 125 16q55 0 109 -14q-106 -123 -234 -285q-70 1 -117 17z" />
<glyph unicode="&#xc2;" horiz-adv-x="1449" d="M43 -6q0 63 16 106q53 10 83 52.5t81 164.5l426 1069q43 10 101 11l479 -1086q39 -86 63.5 -128t46 -59.5t54.5 -21.5q14 -49 14 -108q-80 6 -258 6q-190 0 -268 -6q0 70 16 108q51 6 74.5 20.5t23.5 43.5q0 31 -28 94l-68 160q-317 0 -520 -10l-41 -107 q-27 -68 -27 -113q0 -41 24.5 -62.5t76.5 -25.5q16 -49 16 -108q-70 6 -209 6q-59 0 -176 -6zM365 1571q178 115 293 225q41 10 102 10q115 -123 275 -245q-35 -49 -103 -68q-156 94 -248 135q-174 -84 -258 -137q-24 6 -39.5 30.5t-21.5 49.5zM424 524h430l-133 312 q-55 123 -94 243q-37 -119 -84 -243z" />
<glyph unicode="&#xc3;" horiz-adv-x="1449" d="M43 -6q0 63 16 106q53 10 83 52.5t81 164.5l426 1069q43 10 101 11l479 -1086q39 -86 63.5 -128t46 -59.5t54.5 -21.5q14 -49 14 -108q-80 6 -258 6q-190 0 -268 -6q0 70 16 108q51 6 74.5 20.5t23.5 43.5q0 31 -28 94l-68 160q-317 0 -520 -10l-41 -107 q-27 -68 -27 -113q0 -41 24.5 -62.5t76.5 -25.5q16 -49 16 -108q-70 6 -209 6q-59 0 -176 -6zM342 1620q55 74 118.5 105.5t127.5 31.5q41 0 73.5 -10t83.5 -31q39 -18 65.5 -26.5t53.5 -8.5q63 0 119 62q51 -8 76 -41q-96 -178 -248 -178q-39 0 -72 11t-78 32 q-47 20 -72.5 28.5t-56.5 8.5q-80 0 -149 -74q-39 35 -41 90zM424 524h430l-133 312q-55 123 -94 243q-37 -119 -84 -243z" />
<glyph unicode="&#xc4;" horiz-adv-x="1449" d="M43 -6q0 63 16 106q53 10 83 52.5t81 164.5l426 1069q43 10 101 11l479 -1086q39 -86 63.5 -128t46 -59.5t54.5 -21.5q14 -49 14 -108q-80 6 -258 6q-190 0 -268 -6q0 70 16 108q51 6 74.5 20.5t23.5 43.5q0 31 -28 94l-68 160q-317 0 -520 -10l-41 -107 q-27 -68 -27 -113q0 -41 24.5 -62.5t76.5 -25.5q16 -49 16 -108q-70 6 -209 6q-59 0 -176 -6zM346 1614q0 57 34 96t101 39q70 0 104.5 -36t34.5 -95q0 -53 -38.5 -89t-96.5 -36q-61 0 -100 35t-39 86zM424 524h430l-133 312q-55 123 -94 243q-37 -119 -84 -243zM776 1628 q0 55 39 88t100 33q59 0 99.5 -35t40.5 -86q0 -57 -33 -96t-101 -39q-69 0 -107 37t-38 98z" />
<glyph unicode="&#xc5;" horiz-adv-x="1449" d="M43 -6q0 63 16 106q53 10 83 52.5t81 164.5l426 1069q43 10 101 11l479 -1086q39 -86 63.5 -128t46 -59.5t54.5 -21.5q14 -49 14 -108q-80 6 -258 6q-190 0 -268 -6q0 70 16 108q51 6 74.5 20.5t23.5 43.5q0 31 -28 94l-68 160q-317 0 -520 -10l-41 -107 q-27 -68 -27 -113q0 -41 24.5 -62.5t76.5 -25.5q16 -49 16 -108q-70 6 -209 6q-59 0 -176 -6zM424 524h430l-133 312q-55 123 -94 243q-37 -119 -84 -243zM486 1634q0 78 63 125t160 47q88 0 147.5 -40t59.5 -117q0 -76 -63.5 -125t-162.5 -49q-86 0 -145 43t-59 116z M617 1645q0 -45 24.5 -72t67.5 -27q33 0 55.5 23.5t22.5 62.5q0 41 -25 75t-70 34q-35 0 -55 -25.5t-20 -70.5z" />
<glyph unicode="&#xc6;" horiz-adv-x="1916" d="M43 -6q0 72 16 106q59 8 102.5 48t112.5 163l467 807q33 57 33 92q0 59 -115 72q-16 39 -16 107q213 -4 354 -5h127q354 0 609 5q4 -82 16 -176.5t27 -157.5q-16 -12 -52 -19.5t-73 -7.5q-12 117 -82 185.5t-238 68.5h-135v-577h82q109 0 148.5 36.5t41.5 124.5 q61 18 121 19q-4 -98 -4 -234q0 -137 4 -235q-84 0 -116 12q-6 63 -21.5 100t-58.5 56.5t-127 19.5h-70v-291q0 -88 16.5 -132t47 -58t83.5 -14h50q109 0 169 26.5t94 80.5t70 157q88 -23 121 -56q-40 -122 -63 -321q-262 4 -533 4q-250 0 -454 -4q0 74 14 106q57 6 84 23.5 t37 58.5t10 127v291q-252 -4 -375 -14q-57 -98 -147 -262q-51 -96 -51 -146q0 -37 23.5 -55.5t68.5 -26.5q16 -39 16 -104q-94 6 -221 6q-152 0 -213 -6zM635 705h307v401q0 86 8 160q-25 -55 -78 -148z" />
<glyph unicode="&#xc7;" horiz-adv-x="1327" d="M72 700q0 225 96 384t254 239t340 80q121 0 230.5 -26.5t221.5 -80.5q-23 -117 -22 -317q-43 -20 -135 -21q-4 190 -75 265t-206 75q-219 0 -325.5 -155.5t-106.5 -386.5q0 -180 57.5 -323.5t168 -225.5t264.5 -82q90 0 184 28.5t180 82.5q14 -12 26.5 -35t16.5 -41 q-104 -84 -215 -128t-246 -50l-59 -80q84 -15 132 -65t48 -124q0 -96 -88 -152.5t-203 -56.5q-14 29 -14 76q66 0 114 29t48 78q0 45 -37 72.5t-92 27.5q-37 33 -37 84l78 113q-176 16 -312.5 110t-211 252t-74.5 354z" />
<glyph unicode="&#xc8;" horiz-adv-x="1257" d="M100 -6q0 76 13 108q57 4 85.5 20.5t41 59.5t12.5 129v781q0 76 -12.5 114.5t-42 55t-86.5 20.5q-10 37 -11 109q139 -6 402 -7q330 0 569 7q20 -231 43 -336q-45 -27 -123 -27q-12 117 -81.5 185.5t-239.5 68.5h-166v-534h94q119 0 164 33.5t47 127.5q49 16 121 17 q-6 -100 -6 -228q0 -137 6 -239q-76 0 -117 12q-8 100 -53 135t-162 35h-94v-328q0 -84 15.5 -127t53 -60t111.5 -17h18q121 0 190 28.5t104.5 81.5t68.5 154q80 -15 123 -56q-45 -139 -64 -321q-184 4 -465 4q-408 0 -559 -6zM351 1759q39 20 97 28.5t118 4.5 q55 -141 129 -274q-47 -16 -117 -17q-121 152 -227 258z" />
<glyph unicode="&#xc9;" horiz-adv-x="1257" d="M100 -6q0 76 13 108q57 4 85.5 20.5t41 59.5t12.5 129v781q0 76 -12.5 114.5t-42 55t-86.5 20.5q-10 37 -11 109q139 -6 402 -7q330 0 569 7q20 -231 43 -336q-45 -27 -123 -27q-12 117 -81.5 185.5t-239.5 68.5h-166v-534h94q119 0 164 33.5t47 127.5q49 16 121 17 q-6 -100 -6 -228q0 -137 6 -239q-76 0 -117 12q-8 100 -53 135t-162 35h-94v-328q0 -84 15.5 -127t53 -60t111.5 -17h18q121 0 190 28.5t104.5 81.5t68.5 154q80 -15 123 -56q-45 -139 -64 -321q-184 4 -465 4q-408 0 -559 -6zM514 1518q68 129 117 266q66 16 125 16 q55 0 109 -14q-106 -123 -234 -285q-70 1 -117 17z" />
<glyph unicode="&#xca;" horiz-adv-x="1257" d="M100 -6q0 76 13 108q57 4 85.5 20.5t41 59.5t12.5 129v781q0 76 -12.5 114.5t-42 55t-86.5 20.5q-10 37 -11 109q139 -6 402 -7q330 0 569 7q20 -231 43 -336q-45 -27 -123 -27q-12 117 -81.5 185.5t-239.5 68.5h-166v-534h94q119 0 164 33.5t47 127.5q49 16 121 17 q-6 -100 -6 -228q0 -137 6 -239q-76 0 -117 12q-8 100 -53 135t-162 35h-94v-328q0 -84 15.5 -127t53 -60t111.5 -17h18q121 0 190 28.5t104.5 81.5t68.5 154q80 -15 123 -56q-45 -139 -64 -321q-184 4 -465 4q-408 0 -559 -6zM268 1571q178 115 293 225q41 10 102 10 q115 -123 275 -245q-35 -49 -103 -68q-156 94 -248 135q-174 -84 -258 -137q-24 6 -39.5 30.5t-21.5 49.5z" />
<glyph unicode="&#xcb;" horiz-adv-x="1257" d="M100 -6q0 76 13 108q57 4 85.5 20.5t41 59.5t12.5 129v781q0 76 -12.5 114.5t-42 55t-86.5 20.5q-10 37 -11 109q139 -6 402 -7q330 0 569 7q20 -231 43 -336q-45 -27 -123 -27q-12 117 -81.5 185.5t-239.5 68.5h-166v-534h94q119 0 164 33.5t47 127.5q49 16 121 17 q-6 -100 -6 -228q0 -137 6 -239q-76 0 -117 12q-8 100 -53 135t-162 35h-94v-328q0 -84 15.5 -127t53 -60t111.5 -17h18q121 0 190 28.5t104.5 81.5t68.5 154q80 -15 123 -56q-45 -139 -64 -321q-184 4 -465 4q-408 0 -559 -6zM250 1614q0 57 34 96t101 39q70 0 104.5 -36 t34.5 -95q0 -53 -38.5 -89t-96.5 -36q-61 0 -100 35t-39 86zM680 1628q0 55 39 88t100 33q59 0 99.5 -35t40.5 -86q0 -57 -33 -96t-101 -39q-69 0 -107 37t-38 98z" />
<glyph unicode="&#xcc;" horiz-adv-x="755" d="M100 -6q0 70 13 108q57 4 85.5 20.5t41 55.5t12.5 117v797q0 75 -12.5 114t-41 55.5t-85.5 20.5q-12 43 -13 109q111 -6 281 -7q152 0 274 7q0 -31 -2 -59.5t-10 -49.5q-57 -4 -86 -20.5t-41 -55.5t-12 -114v-797q0 -78 12 -117t41 -55.5t86 -20.5q12 -33 12 -108 q-113 6 -268 6q-172 0 -287 -6zM125 1759q39 20 97 28.5t118 4.5q55 -141 129 -274q-47 -16 -117 -17q-121 152 -227 258z" />
<glyph unicode="&#xcd;" horiz-adv-x="755" d="M100 -6q0 70 13 108q57 4 85.5 20.5t41 55.5t12.5 117v797q0 75 -12.5 114t-41 55.5t-85.5 20.5q-12 43 -13 109q111 -6 281 -7q152 0 274 7q0 -31 -2 -59.5t-10 -49.5q-57 -4 -86 -20.5t-41 -55.5t-12 -114v-797q0 -78 12 -117t41 -55.5t86 -20.5q12 -33 12 -108 q-113 6 -268 6q-172 0 -287 -6zM288 1518q68 129 117 266q66 16 125 16q55 0 109 -14q-106 -123 -234 -285q-70 1 -117 17z" />
<glyph unicode="&#xce;" horiz-adv-x="755" d="M86 1532q86 76 248 246q61 16 100 16q94 -119 236 -281q-18 -20 -49 -35.5t-64 -21.5q-98 86 -205 152q-109 -76 -188 -156q-60 25 -78 80zM100 -6q0 70 13 108q57 4 85.5 20.5t41 55.5t12.5 117v797q0 75 -12.5 114t-41 55.5t-85.5 20.5q-12 43 -13 109q111 -6 281 -7 q152 0 274 7q0 -31 -2 -59.5t-10 -49.5q-57 -4 -86 -20.5t-41 -55.5t-12 -114v-797q0 -78 12 -117t41 -55.5t86 -20.5q12 -33 12 -108q-113 6 -268 6q-172 0 -287 -6z" />
<glyph unicode="&#xcf;" horiz-adv-x="755" d="M63 1608q0 55 34 92t100 37q70 0 104.5 -35t34.5 -90q0 -51 -38 -84t-95 -33q-62 0 -101 32t-39 81zM100 -6q0 70 13 108q57 4 85.5 20.5t41 55.5t12.5 117v797q0 75 -12.5 114t-41 55.5t-85.5 20.5q-12 43 -13 109q111 -6 281 -7q152 0 274 7q0 -31 -2 -59.5t-10 -49.5 q-57 -4 -86 -20.5t-41 -55.5t-12 -114v-797q0 -78 12 -117t41 -55.5t86 -20.5q12 -33 12 -108q-113 6 -268 6q-172 0 -287 -6zM416 1622q0 53 38 84t99 31q59 0 98 -33t39 -82q0 -55 -31.5 -91t-99.5 -36q-70 0 -106.5 35t-36.5 92z" />
<glyph unicode="&#xd0;" horiz-adv-x="1501" d="M100 -6q0 76 13 108q57 4 86.5 20.5t42 60.5t12.5 128v322l-145 -2q0 33 6 70.5t14 56.5h125v334q0 76 -12.5 114.5t-42 55t-86.5 20.5q-10 37 -11 109q109 -6 326 -7q74 0 111 2l123 3q339 0 553.5 -140.5t214.5 -521.5q0 -303 -134.5 -464t-304.5 -212t-332 -51 q-408 0 -559 -6zM506 313q0 -84 14.5 -127t52 -60t111.5 -17q217 0 347 130t130 455q0 309 -148.5 452.5t-373.5 143.5q-78 0 -133 -20v-512h268q0 -80 -18 -125q-98 2 -250 2v-322z" />
<glyph unicode="&#xd1;" horiz-adv-x="1501" d="M92 -6q0 70 10 108q59 2 91 29t45.5 89.5t13.5 180.5v801l-14 19q-27 33 -52.5 45t-83.5 16q-10 43 -10 109q66 -6 184 -7q100 0 164 7l731 -979v579q0 117 -12 177.5t-44 86t-93 27.5q-12 57 -12 109q90 -6 213 -7q120 1 200 7q0 -72 -10 -109q-49 -2 -74.5 -27.5 t-37 -87t-11.5 -176.5v-991q-45 -14 -116 -14l-805 1063v-648q0 -119 12 -181t44 -89t91 -29q12 -37 12 -108q-92 6 -215 6q-147 0 -221 -6zM404 1620q55 74 118.5 105.5t127.5 31.5q41 0 73.5 -10t83.5 -31q39 -18 65.5 -26.5t53.5 -8.5q63 0 119 62q51 -8 76 -41 q-96 -178 -248 -178q-39 0 -72 11t-78 32q-47 20 -72.5 28.5t-56.5 8.5q-80 0 -149 -74q-39 35 -41 90z" />
<glyph unicode="&#xd2;" horiz-adv-x="1513" d="M72 696q0 209 89 369t244.5 249t350.5 89q199 0 355.5 -88t243.5 -246t87 -364q0 -205 -87 -370t-243 -259t-356 -94q-205 0 -359.5 92t-239.5 255t-85 367zM340 750q0 -174 53 -322.5t155.5 -239t244.5 -90.5q116 0 202 72t132.5 198t46.5 285q0 176 -58.5 321.5 t-163 230.5t-235.5 85q-109 0 -195 -66.5t-134 -189.5t-48 -284zM504 1759q39 20 97 28.5t118 4.5q55 -141 129 -274q-47 -16 -117 -17q-121 152 -227 258z" />
<glyph unicode="&#xd3;" horiz-adv-x="1513" d="M72 696q0 209 89 369t244.5 249t350.5 89q199 0 355.5 -88t243.5 -246t87 -364q0 -205 -87 -370t-243 -259t-356 -94q-205 0 -359.5 92t-239.5 255t-85 367zM340 750q0 -174 53 -322.5t155.5 -239t244.5 -90.5q116 0 202 72t132.5 198t46.5 285q0 176 -58.5 321.5 t-163 230.5t-235.5 85q-109 0 -195 -66.5t-134 -189.5t-48 -284zM667 1518q68 129 117 266q66 16 125 16q55 0 109 -14q-106 -123 -234 -285q-70 1 -117 17z" />
<glyph unicode="&#xd4;" horiz-adv-x="1513" d="M72 696q0 209 89 369t244.5 249t350.5 89q199 0 355.5 -88t243.5 -246t87 -364q0 -205 -87 -370t-243 -259t-356 -94q-205 0 -359.5 92t-239.5 255t-85 367zM340 750q0 -174 53 -322.5t155.5 -239t244.5 -90.5q116 0 202 72t132.5 198t46.5 285q0 176 -58.5 321.5 t-163 230.5t-235.5 85q-109 0 -195 -66.5t-134 -189.5t-48 -284zM422 1571q178 115 293 225q41 10 102 10q115 -123 275 -245q-35 -49 -103 -68q-156 94 -248 135q-174 -84 -258 -137q-24 6 -39.5 30.5t-21.5 49.5z" />
<glyph unicode="&#xd5;" horiz-adv-x="1513" d="M72 696q0 209 89 369t244.5 249t350.5 89q199 0 355.5 -88t243.5 -246t87 -364q0 -205 -87 -370t-243 -259t-356 -94q-205 0 -359.5 92t-239.5 255t-85 367zM340 750q0 -174 53 -322.5t155.5 -239t244.5 -90.5q116 0 202 72t132.5 198t46.5 285q0 176 -58.5 321.5 t-163 230.5t-235.5 85q-109 0 -195 -66.5t-134 -189.5t-48 -284zM400 1620q55 74 118.5 105.5t127.5 31.5q41 0 73.5 -10t83.5 -31q39 -18 65.5 -26.5t53.5 -8.5q63 0 119 62q51 -8 76 -41q-96 -178 -248 -178q-39 0 -72 11t-78 32q-47 20 -72.5 28.5t-56.5 8.5 q-80 0 -149 -74q-39 35 -41 90z" />
<glyph unicode="&#xd6;" horiz-adv-x="1513" d="M72 696q0 209 89 369t244.5 249t350.5 89q199 0 355.5 -88t243.5 -246t87 -364q0 -205 -87 -370t-243 -259t-356 -94q-205 0 -359.5 92t-239.5 255t-85 367zM340 750q0 -174 53 -322.5t155.5 -239t244.5 -90.5q116 0 202 72t132.5 198t46.5 285q0 176 -58.5 321.5 t-163 230.5t-235.5 85q-109 0 -195 -66.5t-134 -189.5t-48 -284zM403 1614q0 57 34 96t101 39q70 0 104.5 -36t34.5 -95q0 -53 -38.5 -89t-96.5 -36q-61 0 -100 35t-39 86zM833 1628q0 55 39 88t100 33q59 0 99.5 -35t40.5 -86q0 -57 -33 -96t-101 -39q-69 0 -107 37t-38 98 z" />
<glyph unicode="&#xd7;" d="M80 88l397 440q-193 209 -395 420q23 25 54.5 40.5t66.5 15.5l356 -383l359 397q94 -16 122 -53q-160 -166 -399 -433l403 -432q-20 -27 -55 -42t-69 -15l-43 49q-240 264 -318 348l-88 -98q-63 -72 -130 -147.5t-132 -151.5q-41 0 -77 11.5t-52 33.5z" />
<glyph unicode="&#xd8;" horiz-adv-x="1513" d="M72 696q0 209 89 369t244.5 249t350.5 89q219 0 387 -107l106 140q90 0 135 -37l-141 -182q94 -95 146.5 -226t52.5 -286q0 -205 -87 -370t-243 -259t-356 -94q-225 0 -398 116l-122 -155q-39 0 -73 12t-50 33l153 188q-94 98 -144 230.5t-50 289.5zM340 750 q0 -221 80 -388l598 779q-127 150 -301 149q-109 0 -195 -66.5t-134 -189.5t-48 -284zM489 248q119 -150 304 -150q116 0 202 72t132.5 198t46.5 285q0 213 -84 377z" />
<glyph unicode="&#xd9;" horiz-adv-x="1394" d="M74 1391q82 -6 248 -7q195 0 290 7q0 -66 -10 -109q-63 -6 -91 -20.5t-38 -52.5t-10 -119v-582q0 -193 72.5 -297.5t242.5 -104.5q55 0 111.5 19.5t93.5 60.5q45 47 62.5 125t17.5 238v469q0 102 -11.5 155.5t-40 78t-87.5 30.5q-10 57 -11 109q74 -6 203 -7q121 0 201 7 q0 -55 -12 -109q-49 -6 -76 -29.5t-37 -76t-10 -152.5v-469q0 -186 -24.5 -288.5t-94.5 -170.5q-115 -115 -340 -114q-193 0 -304.5 54t-159.5 162.5t-48 278.5v613q0 80 -10.5 117.5t-35 52t-79.5 22.5q-12 39 -12 109zM510 1759q39 20 97 28.5t118 4.5q55 -141 129 -274 q-47 -16 -117 -17q-121 152 -227 258z" />
<glyph unicode="&#xda;" horiz-adv-x="1394" d="M74 1391q82 -6 248 -7q195 0 290 7q0 -66 -10 -109q-63 -6 -91 -20.5t-38 -52.5t-10 -119v-582q0 -193 72.5 -297.5t242.5 -104.5q55 0 111.5 19.5t93.5 60.5q45 47 62.5 125t17.5 238v469q0 102 -11.5 155.5t-40 78t-87.5 30.5q-10 57 -11 109q74 -6 203 -7q121 0 201 7 q0 -55 -12 -109q-49 -6 -76 -29.5t-37 -76t-10 -152.5v-469q0 -186 -24.5 -288.5t-94.5 -170.5q-115 -115 -340 -114q-193 0 -304.5 54t-159.5 162.5t-48 278.5v613q0 80 -10.5 117.5t-35 52t-79.5 22.5q-12 39 -12 109zM673 1518q68 129 117 266q66 16 125 16q55 0 109 -14 q-106 -123 -234 -285q-70 1 -117 17z" />
<glyph unicode="&#xdb;" horiz-adv-x="1394" d="M74 1391q82 -6 248 -7q195 0 290 7q0 -66 -10 -109q-63 -6 -91 -20.5t-38 -52.5t-10 -119v-582q0 -193 72.5 -297.5t242.5 -104.5q55 0 111.5 19.5t93.5 60.5q45 47 62.5 125t17.5 238v469q0 102 -11.5 155.5t-40 78t-87.5 30.5q-10 57 -11 109q74 -6 203 -7q121 0 201 7 q0 -55 -12 -109q-49 -6 -76 -29.5t-37 -76t-10 -152.5v-469q0 -186 -24.5 -288.5t-94.5 -170.5q-115 -115 -340 -114q-193 0 -304.5 54t-159.5 162.5t-48 278.5v613q0 80 -10.5 117.5t-35 52t-79.5 22.5q-12 39 -12 109zM428 1571q178 115 293 225q41 10 102 10 q115 -123 275 -245q-35 -49 -103 -68q-156 94 -248 135q-174 -84 -258 -137q-24 6 -39.5 30.5t-21.5 49.5z" />
<glyph unicode="&#xdc;" horiz-adv-x="1394" d="M74 1391q82 -6 248 -7q195 0 290 7q0 -66 -10 -109q-63 -6 -91 -20.5t-38 -52.5t-10 -119v-582q0 -193 72.5 -297.5t242.5 -104.5q55 0 111.5 19.5t93.5 60.5q45 47 62.5 125t17.5 238v469q0 102 -11.5 155.5t-40 78t-87.5 30.5q-10 57 -11 109q74 -6 203 -7q121 0 201 7 q0 -55 -12 -109q-49 -6 -76 -29.5t-37 -76t-10 -152.5v-469q0 -186 -24.5 -288.5t-94.5 -170.5q-115 -115 -340 -114q-193 0 -304.5 54t-159.5 162.5t-48 278.5v613q0 80 -10.5 117.5t-35 52t-79.5 22.5q-12 39 -12 109zM410 1614q0 57 34 96t101 39q70 0 104.5 -36 t34.5 -95q0 -53 -38.5 -89t-96.5 -36q-61 0 -100 35t-39 86zM840 1628q0 55 39 88t100 33q59 0 99.5 -35t40.5 -86q0 -57 -33 -96t-101 -39q-69 0 -107 37t-38 98z" />
<glyph unicode="&#xdd;" horiz-adv-x="1292" d="M43 1389q135 -4 250 -5q223 0 293 5q0 -59 -11 -103q-47 -4 -67.5 -19.5t-20.5 -43.5q0 -35 35 -105q102 -205 213 -463q100 236 203 445q37 74 37 112q0 31 -22.5 48.5t-69.5 23.5q-16 53 -17 105q55 -4 203 -5q78 1 180 5q0 -47 -10 -103q-53 -12 -97 -59t-91 -148 l-271 -557v-168q0 -111 12.5 -159t45 -66t112.5 -27q14 -41 15 -108q-147 6 -310 6q-170 0 -321 -4q0 63 14 106q86 6 121 22.5t47 61.5t12 150v184l-325 643q-33 66 -65 92.5t-83 28.5q-12 41 -12 105zM632 1518q68 129 117 266q66 16 125 16q55 0 109 -14 q-106 -123 -234 -285q-70 1 -117 17z" />
<glyph unicode="&#xde;" horiz-adv-x="1257" d="M100 -6q0 70 13 108q57 4 85.5 20.5t41 55.5t12.5 117v797q0 76 -12.5 114.5t-41 55t-85.5 20.5q-12 43 -13 109q111 -6 281 -7q152 0 274 7q0 -31 -2 -59.5t-10 -49.5q-55 -4 -84 -19.5t-41 -51t-14 -105.5q72 2 241 2q222 0 331.5 -106.5t109.5 -274.5 q0 -109 -55.5 -205t-162 -155.5t-253.5 -59.5q-80 0 -142 21q-4 25 -4 34q0 29 11 56q39 -8 94 -8q115 0 189.5 64.5t74.5 215.5q0 145 -79 231.5t-234 86.5q-59 0 -121 -15v-663q0 -88 19.5 -136.5t60.5 -68t114 -23.5q12 -35 13 -108q-104 6 -303 6q-184 0 -308 -6z" />
<glyph unicode="&#xdf;" horiz-adv-x="1318" d="M70 807q0 66 26 111h135v75q0 154 67 261.5t174.5 159.5t232.5 52q174 0 266 -78.5t92 -195.5q0 -90 -38 -143.5t-107 -110.5q-47 -37 -70 -64.5t-23 -62.5q0 -55 40 -91t124 -83q80 -43 131 -81t87 -100.5t36 -152.5t-51 -163.5t-134 -114.5t-177 -41t-156.5 16 t-122.5 55q6 55 6 144q0 72 -2 100q20 8 58 15.5t67 7.5q12 -131 48 -185.5t118 -54.5q49 0 85 42t36 107q0 68 -46 110t-141 95q-76 43 -119.5 75t-75.5 82t-32 122q0 80 37 127t109 98q63 47 96 87t33 103q0 86 -67 149.5t-167 63.5q-92 0 -133 -59t-41 -221v-1067 q-94 4 -174 4q-139 0 -217 -6q0 74 12 108q57 4 86 19.5t41 54.5t12 113v493q-22 11 -72 18t-89 7z" />
<glyph unicode="&#xe0;" horiz-adv-x="1071" d="M88 209q0 174 160 246.5t391 105.5q0 106 -8 153.5t-35 80.5q-47 55 -121 55q-86 0 -126 -69.5t-46 -164.5q-96 0 -139 19q4 49 4 78q0 88 -14 157q84 39 186 62.5t192 23.5q172 0 261 -84q47 -49 67.5 -128.5t20.5 -219.5v-200q0 -66 9 -98.5t34.5 -47t79.5 -18.5l2 -29 q0 -45 -17 -84q-63 -4 -135 -21.5t-129 -43.5q-29 10 -43 38.5t-14 79.5q0 31 6 68q-29 -70 -80 -111q-82 -72 -227 -71q-133 0 -206 58t-73 165zM219 1432q72 33 170 32q25 0 65 -4q53 -182 144 -352q-35 -18 -117 -14q-131 203 -262 338zM338 258q0 -63 30.5 -96t77.5 -33 q45 0 90.5 29.5t74 90t28.5 148.5v66q-145 -20 -223 -62.5t-78 -142.5z" />
<glyph unicode="&#xe1;" horiz-adv-x="1071" d="M88 209q0 174 160 246.5t391 105.5q0 106 -8 153.5t-35 80.5q-47 55 -121 55q-86 0 -126 -69.5t-46 -164.5q-96 0 -139 19q4 49 4 78q0 88 -14 157q84 39 186 62.5t192 23.5q172 0 261 -84q47 -49 67.5 -128.5t20.5 -219.5v-200q0 -66 9 -98.5t34.5 -47t79.5 -18.5l2 -29 q0 -45 -17 -84q-63 -4 -135 -21.5t-129 -43.5q-29 10 -43 38.5t-14 79.5q0 31 6 68q-29 -70 -80 -111q-82 -72 -227 -71q-133 0 -206 58t-73 165zM338 258q0 -63 30.5 -96t77.5 -33q45 0 90.5 29.5t74 90t28.5 148.5v66q-145 -20 -223 -62.5t-78 -142.5zM432 1108 q94 195 131 342q78 29 168 25q37 0 78 -13q-141 -168 -269 -375q-63 -4 -108 21z" />
<glyph unicode="&#xe2;" horiz-adv-x="1071" d="M88 209q0 174 160 246.5t391 105.5q0 106 -8 153.5t-35 80.5q-47 55 -121 55q-86 0 -126 -69.5t-46 -164.5q-96 0 -139 19q4 49 4 78q0 88 -14 157q84 39 186 62.5t192 23.5q172 0 261 -84q47 -49 67.5 -128.5t20.5 -219.5v-200q0 -66 9 -98.5t34.5 -47t79.5 -18.5l2 -29 q0 -45 -17 -84q-63 -4 -135 -21.5t-129 -43.5q-29 10 -43 38.5t-14 79.5q0 31 6 68q-29 -70 -80 -111q-82 -72 -227 -71q-133 0 -206 58t-73 165zM159 1147q84 61 172.5 141t155.5 158q43 14 96 14q135 -174 308 -338q-37 -43 -95 -55l-51 37q-18 12 -95 64.5t-138 84.5 q-49 -25 -149.5 -90t-151.5 -106q-21 12 -34 38.5t-18 51.5zM338 258q0 -63 30.5 -96t77.5 -33q45 0 90.5 29.5t74 90t28.5 148.5v66q-145 -20 -223 -62.5t-78 -142.5z" />
<glyph unicode="&#xe3;" horiz-adv-x="1071" d="M88 209q0 174 160 246.5t391 105.5q0 106 -8 153.5t-35 80.5q-47 55 -121 55q-86 0 -126 -69.5t-46 -164.5q-96 0 -139 19q4 49 4 78q0 88 -14 157q84 39 186 62.5t192 23.5q172 0 261 -84q47 -49 67.5 -128.5t20.5 -219.5v-200q0 -66 9 -98.5t34.5 -47t79.5 -18.5l2 -29 q0 -45 -17 -84q-63 -4 -135 -21.5t-129 -43.5q-29 10 -43 38.5t-14 79.5q0 31 6 68q-29 -70 -80 -111q-82 -72 -227 -71q-133 0 -206 58t-73 165zM139 1217q121 152 250 151q37 0 69 -11t79 -36q39 -20 69.5 -31.5t61.5 -11.5q70 0 129 72q20 -2 41.5 -11.5t36.5 -23.5 q-57 -100 -117 -145.5t-127 -45.5q-57 0 -143 47q-47 25 -79 36.5t-67 11.5q-84 0 -164 -89q-35 31 -39 87zM338 258q0 -63 30.5 -96t77.5 -33q45 0 90.5 29.5t74 90t28.5 148.5v66q-145 -20 -223 -62.5t-78 -142.5z" />
<glyph unicode="&#xe4;" horiz-adv-x="1071" d="M88 209q0 174 160 246.5t391 105.5q0 106 -8 153.5t-35 80.5q-47 55 -121 55q-86 0 -126 -69.5t-46 -164.5q-96 0 -139 19q4 49 4 78q0 88 -14 157q84 39 186 62.5t192 23.5q172 0 261 -84q47 -49 67.5 -128.5t20.5 -219.5v-200q0 -66 9 -98.5t34.5 -47t79.5 -18.5l2 -29 q0 -45 -17 -84q-63 -4 -135 -21.5t-129 -43.5q-29 10 -43 38.5t-14 79.5q0 31 6 68q-29 -70 -80 -111q-82 -72 -227 -71q-133 0 -206 58t-73 165zM154 1196q0 57 34 96t101 39q70 0 104.5 -35.5t34.5 -95.5q0 -53 -38.5 -89t-96.5 -36q-61 0 -100 35t-39 86zM338 258 q0 -63 30.5 -96t77.5 -33q45 0 90.5 29.5t74 90t28.5 148.5v66q-145 -20 -223 -62.5t-78 -142.5zM584 1210q0 55 39 88t100 33q59 0 99.5 -34.5t40.5 -86.5q0 -57 -33 -96t-101 -39q-69 0 -107 37t-38 98z" />
<glyph unicode="&#xe5;" horiz-adv-x="1071" d="M88 209q0 174 160 246.5t391 105.5q0 106 -8 153.5t-35 80.5q-47 55 -121 55q-86 0 -126 -69.5t-46 -164.5q-96 0 -139 19q4 49 4 78q0 88 -14 157q84 39 186 62.5t192 23.5q172 0 261 -84q47 -49 67.5 -128.5t20.5 -219.5v-200q0 -66 9 -98.5t34.5 -47t79.5 -18.5l2 -29 q0 -45 -17 -84q-63 -4 -135 -21.5t-129 -43.5q-29 10 -43 38.5t-14 79.5q0 31 6 68q-29 -70 -80 -111q-82 -72 -227 -71q-133 0 -206 58t-73 165zM281 1260q0 88 67.5 145t167.5 57q92 0 156 -47t64 -139q0 -88 -68 -146.5t-170 -58.5q-90 0 -153.5 52.5t-63.5 136.5z M338 258q0 -63 30.5 -96t77.5 -33q45 0 90.5 29.5t74 90t28.5 148.5v66q-145 -20 -223 -62.5t-78 -142.5zM422 1270q0 -47 25.5 -78t71.5 -31q32 0 54.5 25.5t22.5 68.5q0 47 -24.5 86t-71.5 39q-35 0 -56.5 -29.5t-21.5 -80.5z" />
<glyph unicode="&#xe6;" horiz-adv-x="1464" d="M88 211q0 168 149.5 242.5t368.5 99.5v92q0 98 -43 149.5t-110 51.5q-78 0 -112 -61.5t-46 -168.5q-37 0 -79 5.5t-62 15.5q2 20 2 70q0 96 -13 165q96 41 181.5 62.5t183.5 21.5q164 0 246 -118q53 61 127.5 89.5t152.5 28.5q117 0 195 -60t114.5 -149.5t40.5 -181.5 q-10 -53 -45 -90q-274 -4 -491 -20q2 -135 60.5 -235.5t176.5 -100.5q147 0 244 108q17 -14 34 -38.5t19 -47.5q-127 -154 -362 -153q-121 0 -209 54t-139 144q-29 -88 -116 -143t-212 -55q-123 0 -189.5 57t-66.5 166zM315 252q0 -70 36 -100.5t83 -30.5q76 0 124 76.5 t48 236.5v6v6q-152 -14 -221.5 -59t-69.5 -135zM848 561q100 8 307 17q0 111 -39 189.5t-125 78.5q-71 0 -107 -70.5t-36 -193.5v-21z" />
<glyph unicode="&#xe7;" horiz-adv-x="935" d="M76 465q0 127 52 239.5t155.5 182t244.5 69.5q201 0 326 -88q-18 -102 -18 -243q-41 -23 -127 -23q-8 117 -59.5 180.5t-131.5 63.5q-92 0 -145.5 -94.5t-53.5 -255.5q0 -156 75 -266.5t210 -110.5q66 0 123 25.5t98 72.5q41 -29 52 -78q-97 -137 -285 -155l-62 -82 q84 -14 132.5 -64.5t48.5 -124.5q0 -96 -88 -152.5t-203 -56.5q-14 29 -14 76q66 0 113.5 29t47.5 78q0 45 -36.5 72.5t-92.5 27.5q-37 33 -37 84l78 113q-176 18 -289.5 142t-113.5 339z" />
<glyph unicode="&#xe8;" horiz-adv-x="1011" d="M76 467q0 139 55 249.5t157.5 175t237.5 64.5q201 0 299.5 -116.5t108.5 -313.5q-12 -51 -41 -84q-315 0 -561 -12q14 -141 82.5 -227t206.5 -86q70 0 137 27.5t116 78.5q19 -10 34.5 -34.5t17.5 -49.5q-74 -82 -168 -119.5t-215 -37.5q-229 0 -348 135t-119 350z M234 1432q72 33 170 32q25 0 65 -4q53 -182 144 -352q-35 -18 -117 -14q-131 203 -262 338zM328 549h358q0 137 -45 216t-125 79t-131 -71t-57 -224z" />
<glyph unicode="&#xe9;" horiz-adv-x="1011" d="M76 467q0 139 55 249.5t157.5 175t237.5 64.5q201 0 299.5 -116.5t108.5 -313.5q-12 -51 -41 -84q-315 0 -561 -12q14 -141 82.5 -227t206.5 -86q70 0 137 27.5t116 78.5q19 -10 34.5 -34.5t17.5 -49.5q-74 -82 -168 -119.5t-215 -37.5q-229 0 -348 135t-119 350z M328 549h358q0 137 -45 216t-125 79t-131 -71t-57 -224zM447 1108q94 195 131 342q78 29 168 25q37 0 78 -13q-141 -168 -269 -375q-63 -4 -108 21z" />
<glyph unicode="&#xea;" horiz-adv-x="1011" d="M76 467q0 139 55 249.5t157.5 175t237.5 64.5q201 0 299.5 -116.5t108.5 -313.5q-12 -51 -41 -84q-315 0 -561 -12q14 -141 82.5 -227t206.5 -86q70 0 137 27.5t116 78.5q19 -10 34.5 -34.5t17.5 -49.5q-74 -82 -168 -119.5t-215 -37.5q-229 0 -348 135t-119 350z M174 1147q84 61 172.5 141t155.5 158q43 14 96 14q135 -174 308 -338q-37 -43 -95 -55l-51 37q-18 12 -95 64.5t-138 84.5q-49 -25 -149.5 -90t-151.5 -106q-21 12 -34 38.5t-18 51.5zM328 549h358q0 137 -45 216t-125 79t-131 -71t-57 -224z" />
<glyph unicode="&#xeb;" horiz-adv-x="1011" d="M76 467q0 139 55 249.5t157.5 175t237.5 64.5q201 0 299.5 -116.5t108.5 -313.5q-12 -51 -41 -84q-315 0 -561 -12q14 -141 82.5 -227t206.5 -86q70 0 137 27.5t116 78.5q19 -10 34.5 -34.5t17.5 -49.5q-74 -82 -168 -119.5t-215 -37.5q-229 0 -348 135t-119 350z M168 1196q0 57 34 96t101 39q70 0 104.5 -35.5t34.5 -95.5q0 -53 -38.5 -89t-96.5 -36q-61 0 -100 35t-39 86zM328 549h358q0 137 -45 216t-125 79t-131 -71t-57 -224zM598 1210q0 55 39 88t100 33q59 0 99.5 -34.5t40.5 -86.5q0 -57 -33 -96t-101 -39q-69 0 -107 37t-38 98 z" />
<glyph unicode="&#xec;" horiz-adv-x="673" d="M41 1432q72 33 170 32q25 0 65 -4q53 -182 144 -352q-35 -18 -117 -14q-131 203 -262 338zM72 791q0 63 20 96q76 0 179.5 21.5t142.5 47.5q51 -20 51 -96v-579q0 -100 27.5 -138.5t97.5 -40.5q12 -39 12 -108q-98 6 -262 6q-174 0 -266 -6q0 71 12 108q82 2 110.5 39 t28.5 140v364q0 53 -11 83t-44 45t-98 18z" />
<glyph unicode="&#xed;" horiz-adv-x="673" d="M72 791q0 63 20 96q76 0 179.5 21.5t142.5 47.5q51 -20 51 -96v-579q0 -100 27.5 -138.5t97.5 -40.5q12 -39 12 -108q-98 6 -262 6q-174 0 -266 -6q0 71 12 108q82 2 110.5 39t28.5 140v364q0 53 -11 83t-44 45t-98 18zM254 1108q94 195 131 342q78 29 168 25 q37 0 78 -13q-141 -168 -269 -375q-63 -4 -108 21z" />
<glyph unicode="&#xee;" horiz-adv-x="673" d="M37 1145q94 98 248 301q59 12 100 12q98 -152 236 -340q-18 -18 -50 -32.5t-63 -18.5q-121 133 -205 195q-109 -100 -188 -203q-58 27 -78 86zM72 791q0 63 20 96q76 0 179.5 21.5t142.5 47.5q51 -20 51 -96v-579q0 -100 27.5 -138.5t97.5 -40.5q12 -39 12 -108 q-98 6 -262 6q-174 0 -266 -6q0 71 12 108q82 2 110.5 39t28.5 140v364q0 53 -11 83t-44 45t-98 18z" />
<glyph unicode="&#xef;" horiz-adv-x="673" d="M14 1196q0 57 34 96t102 39q70 0 104.5 -35.5t34.5 -95.5q0 -53 -39 -89t-96 -36q-62 0 -101 35t-39 86zM72 791q0 63 20 96q76 0 179.5 21.5t142.5 47.5q51 -20 51 -96v-579q0 -100 27.5 -138.5t97.5 -40.5q12 -39 12 -108q-98 6 -262 6q-174 0 -266 -6q0 71 12 108 q82 2 110.5 39t28.5 140v364q0 53 -11 83t-44 45t-98 18zM369 1210q0 55 37.5 88t99.5 33q61 0 100 -33.5t39 -87.5q0 -57 -31.5 -95t-99.5 -38q-70 0 -107.5 36t-37.5 97z" />
<glyph unicode="&#xf0;" horiz-adv-x="1118" d="M76 455q0 231 128 364t345 133q111 0 180 -45q-39 102 -108 193l-230 -117q-14 25 -24.5 62.5t-8.5 58.5l177 84q-106 92 -273 151q0 61 19 97q109 0 239 32q127 -76 230 -178l211 101q31 -66 30 -121l-162 -72q213 -270 213 -637q0 -279 -127 -428t-370 -149 q-221 0 -345 122.5t-124 348.5zM328 479q0 -182 64.5 -281.5t172.5 -99.5q226 0 226 426q0 129 -23 248q-41 31 -99.5 48.5t-109.5 17.5q-113 0 -172 -94.5t-59 -264.5z" />
<glyph unicode="&#xf1;" horiz-adv-x="1290" d="M74 -6q0 76 12 108q80 0 109.5 38t29.5 141v354q0 57 -10 89t-43 48t-98 19q0 63 20 96q86 2 178.5 23.5t141.5 45.5q51 -20 51 -102q0 -57 -16 -121q2 6 14 29.5t31 46.5q41 55 118.5 96t171.5 41q135 0 223.5 -81t88.5 -253v-331q0 -102 25.5 -140.5t84.5 -38.5 q15 -42 15 -108q-92 6 -242 6q-78 0 -268 -6q0 74 14 108q68 0 98.5 41t30.5 144v264q0 129 -45 183t-129 54q-55 0 -104.5 -36.5t-80 -111.5t-30.5 -185v-174q0 -102 28.5 -140.5t100.5 -38.5q14 -39 14 -108q-178 6 -262 6q-182 0 -272 -6zM282 1217q121 152 250 151 q37 0 69 -11t79 -36q39 -20 69.5 -31.5t61.5 -11.5q70 0 129 72q20 -2 41.5 -11.5t36.5 -23.5q-57 -100 -117 -145.5t-127 -45.5q-57 0 -143 47q-47 25 -79 36.5t-67 11.5q-84 0 -164 -89q-35 31 -39 87z" />
<glyph unicode="&#xf2;" horiz-adv-x="1132" d="M76 465q0 145 63.5 257t175 173t252.5 61q231 0 360.5 -132t129.5 -351q0 -145 -61.5 -256t-173 -173t-259.5 -62q-227 0 -357 130t-130 353zM271 1432q72 33 170 32q25 0 65 -4q53 -182 144 -352q-35 -18 -117 -14q-131 203 -262 338zM334 516q0 -195 67.5 -307.5 t184.5 -112.5q104 0 159.5 93.5t55.5 246.5q0 125 -35 217t-93.5 141.5t-127.5 49.5q-102 0 -156.5 -90t-54.5 -238z" />
<glyph unicode="&#xf3;" horiz-adv-x="1132" d="M76 465q0 145 63.5 257t175 173t252.5 61q231 0 360.5 -132t129.5 -351q0 -145 -61.5 -256t-173 -173t-259.5 -62q-227 0 -357 130t-130 353zM334 516q0 -195 67.5 -307.5t184.5 -112.5q104 0 159.5 93.5t55.5 246.5q0 125 -35 217t-93.5 141.5t-127.5 49.5 q-102 0 -156.5 -90t-54.5 -238zM484 1108q94 195 131 342q78 29 168 25q37 0 78 -13q-141 -168 -269 -375q-63 -4 -108 21z" />
<glyph unicode="&#xf4;" horiz-adv-x="1132" d="M76 465q0 145 63.5 257t175 173t252.5 61q231 0 360.5 -132t129.5 -351q0 -145 -61.5 -256t-173 -173t-259.5 -62q-227 0 -357 130t-130 353zM210 1147q84 61 172.5 141t155.5 158q43 14 96 14q135 -174 308 -338q-37 -43 -95 -55l-51 37q-18 12 -95 64.5t-138 84.5 q-49 -25 -149.5 -90t-151.5 -106q-21 12 -34 38.5t-18 51.5zM334 516q0 -195 67.5 -307.5t184.5 -112.5q104 0 159.5 93.5t55.5 246.5q0 125 -35 217t-93.5 141.5t-127.5 49.5q-102 0 -156.5 -90t-54.5 -238z" />
<glyph unicode="&#xf5;" horiz-adv-x="1132" d="M76 465q0 145 63.5 257t175 173t252.5 61q231 0 360.5 -132t129.5 -351q0 -145 -61.5 -256t-173 -173t-259.5 -62q-227 0 -357 130t-130 353zM190 1217q121 152 250 151q37 0 69 -11t79 -36q39 -20 69.5 -31.5t61.5 -11.5q70 0 129 72q20 -2 41.5 -11.5t36.5 -23.5 q-57 -100 -117 -145.5t-127 -45.5q-57 0 -143 47q-47 25 -79 36.5t-67 11.5q-84 0 -164 -89q-35 31 -39 87zM334 516q0 -195 67.5 -307.5t184.5 -112.5q104 0 159.5 93.5t55.5 246.5q0 125 -35 217t-93.5 141.5t-127.5 49.5q-102 0 -156.5 -90t-54.5 -238z" />
<glyph unicode="&#xf6;" horiz-adv-x="1132" d="M76 465q0 145 63.5 257t175 173t252.5 61q231 0 360.5 -132t129.5 -351q0 -145 -61.5 -256t-173 -173t-259.5 -62q-227 0 -357 130t-130 353zM205 1196q0 57 34 96t101 39q70 0 104.5 -35.5t34.5 -95.5q0 -53 -38.5 -89t-96.5 -36q-61 0 -100 35t-39 86zM334 516 q0 -195 67.5 -307.5t184.5 -112.5q104 0 159.5 93.5t55.5 246.5q0 125 -35 217t-93.5 141.5t-127.5 49.5q-102 0 -156.5 -90t-54.5 -238zM635 1210q0 55 39 88t100 33q59 0 99.5 -34.5t40.5 -86.5q0 -57 -33 -96t-101 -39q-69 0 -107 37t-38 98z" />
<glyph unicode="&#xf7;" d="M88 475q0 29 6 67t15 58h929q0 -41 -4 -69.5t-16 -53.5q-217 4 -434 4q-106 0 -312 -4zM440 879q0 53 37 81.5t88 28.5t86 -28.5t35 -75.5q0 -59 -28.5 -97t-84.5 -38q-65 0 -99 34.5t-34 94.5zM442 207q0 53 29 86t90 33q123 0 123 -119q0 -53 -34 -85t-85 -32t-87 34 t-36 83z" />
<glyph unicode="&#xf8;" horiz-adv-x="1132" d="M39 -33l147 166q-111 129 -110 332q0 145 63.5 257t175 173t252.5 61q166 0 283 -69l102 114q39 0 76 -9t59 -23l-143 -162q113 -129 113 -334q0 -145 -61.5 -256t-173 -173t-259.5 -62q-172 0 -289 75l-106 -123q-41 0 -77 9.5t-52 23.5zM334 516q0 -109 22 -194 l363 423q-74 98 -174 99q-103 0 -157 -90t-54 -238zM406 201q66 -104 180 -105q104 0 159.5 93.5t55.5 246.5q0 102 -27 193z" />
<glyph unicode="&#xf9;" horiz-adv-x="1206" d="M33 791q0 63 16 96q84 2 169 22.5t136 46.5q51 -20 52 -102v-446q0 -139 33.5 -204t113.5 -65q98 0 159.5 87t61.5 251v168q0 57 -11 89t-43 48.5t-97 18.5q0 35 3 56.5t13 39.5q98 2 186 19.5t138 39.5q51 -20 51 -102v-541q0 -90 23.5 -120.5t101.5 -32.5 q3 -72 -17 -113q-66 -4 -139.5 -21.5t-130.5 -43.5q-31 12 -45 35.5t-14 82.5q0 39 8 88q-23 -53 -68 -98q-51 -51 -115.5 -75.5t-150.5 -24.5q-152 0 -226.5 85t-74.5 285v275q0 59 -8 90t-37 47t-88 19zM289 1432q72 33 170 32q25 0 65 -4q53 -182 144 -352 q-35 -18 -117 -14q-131 203 -262 338z" />
<glyph unicode="&#xfa;" horiz-adv-x="1206" d="M33 791q0 63 16 96q84 2 169 22.5t136 46.5q51 -20 52 -102v-446q0 -139 33.5 -204t113.5 -65q98 0 159.5 87t61.5 251v168q0 57 -11 89t-43 48.5t-97 18.5q0 35 3 56.5t13 39.5q98 2 186 19.5t138 39.5q51 -20 51 -102v-541q0 -90 23.5 -120.5t101.5 -32.5 q3 -72 -17 -113q-66 -4 -139.5 -21.5t-130.5 -43.5q-31 12 -45 35.5t-14 82.5q0 39 8 88q-23 -53 -68 -98q-51 -51 -115.5 -75.5t-150.5 -24.5q-152 0 -226.5 85t-74.5 285v275q0 59 -8 90t-37 47t-88 19zM502 1108q94 195 131 342q78 29 168 25q37 0 78 -13 q-141 -168 -269 -375q-63 -4 -108 21z" />
<glyph unicode="&#xfb;" horiz-adv-x="1206" d="M33 791q0 63 16 96q84 2 169 22.5t136 46.5q51 -20 52 -102v-446q0 -139 33.5 -204t113.5 -65q98 0 159.5 87t61.5 251v168q0 57 -11 89t-43 48.5t-97 18.5q0 35 3 56.5t13 39.5q98 2 186 19.5t138 39.5q51 -20 51 -102v-541q0 -90 23.5 -120.5t101.5 -32.5 q3 -72 -17 -113q-66 -4 -139.5 -21.5t-130.5 -43.5q-31 12 -45 35.5t-14 82.5q0 39 8 88q-23 -53 -68 -98q-51 -51 -115.5 -75.5t-150.5 -24.5q-152 0 -226.5 85t-74.5 285v275q0 59 -8 90t-37 47t-88 19zM229 1147q84 61 172.5 141t155.5 158q43 14 96 14 q135 -174 308 -338q-37 -43 -95 -55l-51 37q-18 12 -95 64.5t-138 84.5q-49 -25 -149.5 -90t-151.5 -106q-21 12 -34 38.5t-18 51.5z" />
<glyph unicode="&#xfc;" horiz-adv-x="1206" d="M33 791q0 63 16 96q84 2 169 22.5t136 46.5q51 -20 52 -102v-446q0 -139 33.5 -204t113.5 -65q98 0 159.5 87t61.5 251v168q0 57 -11 89t-43 48.5t-97 18.5q0 35 3 56.5t13 39.5q98 2 186 19.5t138 39.5q51 -20 51 -102v-541q0 -90 23.5 -120.5t101.5 -32.5 q3 -72 -17 -113q-66 -4 -139.5 -21.5t-130.5 -43.5q-31 12 -45 35.5t-14 82.5q0 39 8 88q-23 -53 -68 -98q-51 -51 -115.5 -75.5t-150.5 -24.5q-152 0 -226.5 85t-74.5 285v275q0 59 -8 90t-37 47t-88 19zM223 1196q0 57 34 96t101 39q70 0 104.5 -35.5t34.5 -95.5 q0 -53 -38.5 -89t-96.5 -36q-61 0 -100 35t-39 86zM653 1210q0 55 39 88t100 33q59 0 99.5 -34.5t40.5 -86.5q0 -57 -33 -96t-101 -39q-69 0 -107 37t-38 98z" />
<glyph unicode="&#xfd;" horiz-adv-x="1130" d="M29 942q156 -4 254 -4q125 0 292 4q0 -63 -16 -106q-63 -10 -91 -29t-28 -53q0 -39 41 -125q80 -156 164 -383l4 8l142 356q33 80 32 129q0 43 -26.5 63.5t-83.5 33.5q-16 41 -17 106q63 -4 203 -4q142 0 203 6q0 -72 -17 -108q-53 -14 -82.5 -51t-74.5 -144l-301 -717 q-76 -184 -134.5 -276t-110.5 -125t-124 -33q-57 0 -102 18.5t-72 47.5q-6 25 -6 61q0 59 14 107q84 -18 160 -19q68 0 116 25.5t85 85.5q12 20 71 141q-199 451 -299 659q-59 127 -95 167t-87 53q-14 41 -14 106zM561 1108q94 195 131 342q78 29 168 25q37 0 78 -13 q-141 -168 -269 -375q-63 -4 -108 21z" />
<glyph unicode="&#xfe;" horiz-adv-x="1228" d="M63 1303q0 63 21 96q76 0 179.5 21.5t142.5 47.5q51 -20 51 -96v-483q0 -49 -8 -111q18 31 34 47q37 49 112 90t165 41q184 0 288.5 -107.5t104.5 -322.5q0 -158 -66.5 -281.5t-188.5 -193t-282 -69.5q-67 -1 -159 24v-172q0 -88 19.5 -136t60.5 -67.5t114 -23.5 q12 -35 13 -109q-102 6 -289 6q-215 0 -309 -6q0 72 10 109q57 4 87 20.5t42 56.5t12 115v1358q0 53 -11 83t-44 45t-99 18zM457 162q35 -35 74.5 -53.5t91.5 -18.5q106 0 190 87t84 300q0 145 -56.5 237.5t-152.5 92.5t-163.5 -90t-67.5 -279v-276z" />
<glyph unicode="&#xff;" horiz-adv-x="1130" d="M29 942q156 -4 254 -4q125 0 292 4q0 -63 -16 -106q-63 -10 -91 -29t-28 -53q0 -39 41 -125q80 -156 164 -383l4 8l142 356q33 80 32 129q0 43 -26.5 63.5t-83.5 33.5q-16 41 -17 106q63 -4 203 -4q142 0 203 6q0 -72 -17 -108q-53 -14 -82.5 -51t-74.5 -144l-301 -717 q-76 -184 -134.5 -276t-110.5 -125t-124 -33q-57 0 -102 18.5t-72 47.5q-6 25 -6 61q0 59 14 107q84 -18 160 -19q68 0 116 25.5t85 85.5q12 20 71 141q-199 451 -299 659q-59 127 -95 167t-87 53q-14 41 -14 106zM283 1196q0 57 34 96t101 39q70 0 104.5 -35.5t34.5 -95.5 q0 -53 -38.5 -89t-96.5 -36q-61 0 -100 35t-39 86zM713 1210q0 55 39 88t100 33q59 0 99.5 -34.5t40.5 -86.5q0 -57 -33 -96t-101 -39q-69 0 -107 37t-38 98z" />
<glyph unicode="&#x152;" horiz-adv-x="2004" d="M72 686q0 215 82 377t233.5 249t353.5 87q86 0 209 -6q217 -8 355 -9q276 0 522 5q14 -215 43 -328q-43 -29 -125 -29q-12 117 -83 185.5t-243 68.5h-315q125 -82 188.5 -221t69.5 -320h24q109 0 150 38t41 120q61 18 123 19q-4 -98 -4 -232q0 -141 4 -235q-76 0 -117 12 q-6 61 -22.5 97t-60.5 55.5t-126 19.5h-16q-10 -172 -73.5 -308t-182.5 -222h379q106 0 168.5 28.5t96.5 82.5t66 153q82 -14 125 -56q-45 -139 -63 -321q-184 4 -490 4q-109 0 -385 -10q-184 -8 -266 -8q-203 0 -352.5 87t-229 245.5t-79.5 371.5zM334 729 q0 -188 50 -330.5t145.5 -221.5t228.5 -79q156 0 249 147.5t93 424.5q0 193 -52.5 332t-140.5 210.5t-194 71.5q-176 0 -277.5 -148.5t-101.5 -406.5z" />
<glyph unicode="&#x153;" horiz-adv-x="1648" d="M76 465q0 225 128 358t345 133q209 0 325 -133q111 133 308 133q188 0 285.5 -121.5t103.5 -310.5q-8 -49 -41 -84q-346 0 -535 -10q16 -147 88 -230t189 -83q59 0 125.5 28.5t113.5 77.5q19 -10 34.5 -34.5t17.5 -49.5q-139 -158 -371 -157q-100 0 -182 33.5t-138 99.5 q-55 -66 -139 -99.5t-188 -33.5q-217 0 -343 130t-126 353zM332 516q0 -193 63.5 -306.5t171.5 -113.5q88 0 139.5 91.5t51.5 248.5q0 188 -62.5 298t-169.5 110q-90 0 -142 -88t-52 -240zM991 547h334q0 131 -44 214t-118 83q-76 0 -121 -79t-51 -218z" />
<glyph unicode="&#x178;" horiz-adv-x="1292" d="M43 1389q135 -4 250 -5q223 0 293 5q0 -59 -11 -103q-47 -4 -67.5 -19.5t-20.5 -43.5q0 -35 35 -105q102 -205 213 -463q100 236 203 445q37 74 37 112q0 31 -22.5 48.5t-69.5 23.5q-16 53 -17 105q55 -4 203 -5q78 1 180 5q0 -47 -10 -103q-53 -12 -97 -59t-91 -148 l-271 -557v-168q0 -111 12.5 -159t45 -66t112.5 -27q14 -41 15 -108q-147 6 -310 6q-170 0 -321 -4q0 63 14 106q86 6 121 22.5t47 61.5t12 150v184l-325 643q-33 66 -65 92.5t-83 28.5q-12 41 -12 105zM369 1614q0 57 34 96t101 39q70 0 104.5 -36t34.5 -95 q0 -53 -38.5 -89t-96.5 -36q-61 0 -100 35t-39 86zM799 1628q0 55 39 88t100 33q59 0 99.5 -35t40.5 -86q0 -57 -33 -96t-101 -39q-69 0 -107 37t-38 98z" />
<glyph unicode="&#x2c6;" horiz-adv-x="614" d="M-60 1147q84 61 172.5 141t155.5 158q43 14 96 14q135 -174 308 -338q-37 -43 -95 -55l-51 37q-18 12 -95 64.5t-138 84.5q-49 -25 -149.5 -90t-151.5 -106q-21 12 -34 38.5t-18 51.5z" />
<glyph unicode="&#x2dc;" horiz-adv-x="614" d="M-62 1217q121 152 250 151q37 0 69 -11t79 -36q39 -20 69.5 -31.5t61.5 -11.5q70 0 129 72q20 -2 41.5 -11.5t36.5 -23.5q-57 -100 -117 -145.5t-127 -45.5q-57 0 -143 47q-47 25 -79 36.5t-67 11.5q-84 0 -164 -89q-35 31 -39 87z" />
<glyph unicode="&#x2000;" horiz-adv-x="903" />
<glyph unicode="&#x2001;" horiz-adv-x="1806" />
<glyph unicode="&#x2002;" horiz-adv-x="903" />
<glyph unicode="&#x2003;" horiz-adv-x="1806" />
<glyph unicode="&#x2004;" horiz-adv-x="602" />
<glyph unicode="&#x2005;" horiz-adv-x="451" />
<glyph unicode="&#x2006;" horiz-adv-x="301" />
<glyph unicode="&#x2007;" horiz-adv-x="301" />
<glyph unicode="&#x2008;" horiz-adv-x="225" />
<glyph unicode="&#x2009;" horiz-adv-x="361" />
<glyph unicode="&#x200a;" horiz-adv-x="100" />
<glyph unicode="&#x2010;" horiz-adv-x="858" d="M123 446q0 39 9 85.5t24 76.5h579q1 -90 -26 -151q-381 0 -586 -11z" />
<glyph unicode="&#x2011;" horiz-adv-x="858" d="M123 446q0 39 9 85.5t24 76.5h579q1 -90 -26 -151q-381 0 -586 -11z" />
<glyph unicode="&#x2012;" horiz-adv-x="858" d="M123 446q0 39 9 85.5t24 76.5h579q1 -90 -26 -151q-381 0 -586 -11z" />
<glyph unicode="&#x2013;" horiz-adv-x="1175" d="M123 463q0 35 7 73.5t17 61.5h906q0 -84 -25 -127q-485 0 -905 -8z" />
<glyph unicode="&#x2014;" horiz-adv-x="2115" d="M123 463q0 33 7 74t17 59h1846q0 -82 -25 -125q-1346 0 -1845 -8z" />
<glyph unicode="&#x2018;" horiz-adv-x="538" d="M123 1087q0 111 42 206.5t126 183.5q61 0 102 -31q-53 -68 -70.5 -110t-17.5 -95q0 -88 111 -100q0 -90 -23 -154q-117 -16 -188 -63q-43 16 -62.5 55t-19.5 108z" />
<glyph unicode="&#x2019;" horiz-adv-x="538" d="M123 1257q0 90 22 154q117 16 189 64q43 -14 62.5 -53.5t19.5 -110.5q0 -111 -42 -206t-126 -183q-61 0 -103 30q53 68 70.5 110t17.5 95q0 88 -110 100z" />
<glyph unicode="&#x201a;" horiz-adv-x="538" d="M123 18q0 90 22 154q117 16 189 64q43 -14 62.5 -53.5t19.5 -110.5q0 -111 -42 -206t-126 -183q-61 0 -103 30q53 68 70.5 110t17.5 95q0 88 -110 100z" />
<glyph unicode="&#x201c;" horiz-adv-x="866" d="M123 1094q0 96 45 197.5t123 181.5q25 2 52.5 -5.5t47.5 -21.5q-41 -49 -65.5 -104.5t-24.5 -100.5q0 -90 100 -98q4 -96 -20 -156q-109 -16 -176 -63q-41 20 -61.5 59t-20.5 111zM463 1098q0 94 42 190t118 178q27 0 54.5 -7t45.5 -19q-41 -51 -64.5 -103.5t-23.5 -95.5 q0 -90 108 -98q4 -86 -20 -154q-113 -12 -182 -61q-41 20 -59.5 59t-18.5 111z" />
<glyph unicode="&#x201d;" horiz-adv-x="866" d="M123 1257q-4 86 20 154q113 12 183 62q41 -20 59 -59.5t18 -110.5q0 -95 -42 -191t-117 -178q-27 0 -54.5 7t-46.5 20q41 51 64.5 103t23.5 95q0 90 -108 98zM465 1257q-4 96 20 156q109 16 177 64q41 -20 61 -59.5t20 -110.5q0 -97 -45 -198t-123 -181q-25 -2 -52 5 t-48 21q41 49 65.5 104.5t24.5 100.5q0 90 -100 98z" />
<glyph unicode="&#x201e;" horiz-adv-x="866" d="M123 16q-4 86 20 154q113 12 183 61q41 -20 59 -59t18 -111q0 -94 -42 -190t-117 -178q-27 0 -54.5 7t-46.5 19q41 51 64.5 103.5t23.5 95.5q0 90 -108 98zM465 16q-4 96 20 156q109 16 177 64q41 -20 61 -59.5t20 -110.5q0 -97 -45 -198t-123 -181q-25 -2 -52 5t-48 21 q41 49 65.5 104.5t24.5 100.5q0 90 -100 98z" />
<glyph unicode="&#x2022;" horiz-adv-x="749" d="M123 535q0 100 71.5 166.5t184.5 66.5q117 0 182.5 -69.5t65.5 -168.5q0 -111 -66.5 -180t-181.5 -69q-125 0 -190.5 73.5t-65.5 180.5z" />
<glyph unicode="&#x2026;" horiz-adv-x="1841" d="M106 135q0 72 48.5 117t124.5 45q70 0 113.5 -46t43.5 -104q0 -76 -46 -120.5t-120 -44.5q-77 0 -120.5 42t-43.5 111zM774 135q0 72 48.5 117t124.5 45q70 0 113.5 -46t43.5 -104q0 -76 -46 -120.5t-120 -44.5q-77 0 -120.5 42t-43.5 111zM1411 135q0 72 48.5 117 t124.5 45q70 0 113.5 -46t43.5 -104q0 -76 -46 -120.5t-120 -44.5q-77 0 -120.5 42t-43.5 111z" />
<glyph unicode="&#x202f;" horiz-adv-x="361" />
<glyph unicode="&#x2039;" horiz-adv-x="690" d="M123 471q0 57 16 102q121 98 283 277q27 -2 54.5 -13.5t43.5 -25.5q-49 -59 -104.5 -139t-83.5 -135q80 -152 182 -289q-6 -25 -26.5 -50.5t-41.5 -39.5q-178 195 -323 313z" />
<glyph unicode="&#x203a;" horiz-adv-x="706" d="M170 819q18 14 45 23.5t53 9.5q160 -150 297 -262q18 -39 19 -94q-154 -152 -322 -336q-47 29 -69 76q106 133 186 266q-70 123 -209 317z" />
<glyph unicode="&#x205f;" horiz-adv-x="451" />
<glyph unicode="&#x20ac;" horiz-adv-x="1544" d="M90 492q0 35 7 73.5t18 61.5h176q-2 25 -2 73q0 41 2 60q-115 0 -180 -2q0 35 7 73.5t17 61.5h174q39 164 139.5 278.5t238.5 173t292 58.5q121 0 230.5 -26.5t222.5 -80.5q-23 -117 -23 -317q-43 -20 -135 -21q-4 190 -75 265t-206 75q-184 0 -288.5 -112.5 t-133.5 -292.5h539q0 -84 -25 -127q-338 0 -524 -2v-8q0 -74 8 -129h498q0 -80 -27 -127q-293 0 -444 -2q51 -172 168 -272.5t287 -100.5q90 0 184 28.5t180 82.5q15 -13 27 -35.5t16 -40.5q-113 -90 -231.5 -134t-272.5 -44q-242 0 -414.5 139t-228.5 375z" />
<glyph unicode="&#x2122;" horiz-adv-x="1986" d="M123 1350q10 41 17 101t7 103q88 -2 326 -2q236 0 322 2q0 -43 6 -100t16 -102q-39 -18 -104 -19q-12 78 -40 111t-81 33h-21v-418q0 -72 22.5 -95.5t86.5 -27.5q10 -29 10 -100q-78 4 -207 4q-147 0 -241 -4q0 25 3 54.5t9 45.5q68 4 91.5 27.5t23.5 95.5v418h-9 q-57 0 -86.5 -34t-46.5 -110q-72 0 -104 17zM842 836q0 68 10 100q43 4 62.5 32.5t27.5 123.5l23 266l2 28q0 37 -14.5 51.5t-53.5 14.5q-10 39 -10 102q33 -2 145 -2q117 0 137 2l197 -464l170 464q37 -2 145 -2q106 0 140 2q0 -61 -8 -102q-39 -2 -54.5 -14.5t-15.5 -46.5 q0 -20 2 -35l29 -299q6 -53 12 -77t20.5 -32t44.5 -12q11 -39 11 -100q-57 4 -201 4q-104 0 -158 -4q0 68 11 100q37 4 49 15.5t12 43.5q0 31 -2 52l-33 294l-196 -503q-25 -8 -78 -9l-224 504l-26 -239q-4 -29 -4 -72q0 -49 14 -65.5t49 -20.5q12 -39 13 -100q-45 4 -117 4 q-86 0 -131 -4z" />
<glyph unicode="&#x25fc;" horiz-adv-x="942" d="M0 0v942h942v-942h-942z" />
<glyph unicode="&#xfb01;" horiz-adv-x="1382" d="M70 807q0 68 28 111h131v77q0 135 65.5 243t189.5 168t296 60q113 0 196 -18t157 -49q-10 -86 -11 -213q-35 -18 -83 -29.5t-97 -11.5q-29 0 -43 2q-4 102 -46 150.5t-134 48.5q-133 0 -190.5 -71t-57.5 -216v-141h342q186 4 309 38q27 -12 40.5 -33.5t13.5 -62.5v-579 q0 -102 26.5 -138.5t95.5 -40.5q12 -35 13 -108q-82 6 -264 6q-168 0 -265 -6q0 63 13 108q57 4 85.5 19.5t41 51.5t12.5 106v358q0 59 -15.5 95t-60.5 53.5t-131 17.5q-63 0 -145 -8.5t-111 -16.5v-479q0 -109 29.5 -149.5t111.5 -47.5q12 -35 13 -108q-92 6 -260 6 q-197 0 -287 -6q0 71 12 108q57 4 86 20.5t41 55.5t12 115v487q-29 10 -76 18.5t-83 8.5z" />
<glyph unicode="&#xfb02;" horiz-adv-x="1380" d="M70 807q0 72 28 111h131v75q0 156 74 262.5t194.5 158.5t264.5 52q63 0 124.5 -13t104.5 -34q90 18 137 49q51 -23 52 -96v-1091q0 -102 26.5 -139.5t98.5 -39.5q12 -38 12 -108q-98 6 -264 6q-170 0 -267 -6q0 66 15 108q82 2 109.5 39t27.5 140v866q0 96 -61.5 145 t-165.5 49q-119 0 -179.5 -66.5t-60.5 -215.5v-141h217q0 -76 -20 -115q-117 0 -197 -25v-448q0 -90 12.5 -136.5t44 -67t90.5 -24.5q12 -35 13 -108q-100 6 -269 6q-186 0 -284 -6q0 76 12 108q57 4 86 20.5t41 55.5t12 117v491q-84 20 -159 21z" />
<glyph unicode="&#xfb03;" horiz-adv-x="2076" d="M70 807q0 72 28 111h131v51q0 139 68 243.5t184.5 161t263.5 56.5q88 0 172 -25t152 -72q150 133 406 133q113 0 195.5 -18t156.5 -49q-10 -86 -10 -213q-35 -18 -83 -29.5t-98 -11.5q-29 0 -43 2q-4 102 -46 150.5t-134 48.5q-133 0 -190.5 -71t-57.5 -216v-141h336 q82 2 168 12t148 26q27 -12 40 -33.5t13 -62.5v-579q0 -102 26.5 -138.5t96.5 -40.5q14 -32 14 -108q-86 6 -266 6q-168 0 -264 -6q0 63 12 108q57 4 86 19.5t41 51.5t12 106v358q0 61 -14.5 94t-59.5 51.5t-135 20.5q-66 0 -145.5 -8.5t-108.5 -16.5v-479q0 -109 30 -149.5 t112 -47.5q12 -35 12 -108q-92 6 -260 6q-197 0 -287 -6q0 72 12 108q57 4 86 20.5t41.5 55.5t12.5 115v495q-84 23 -205 23q-150 0 -248 -31v-450q0 -92 16.5 -139.5t52 -66t101.5 -22.5q12 -35 12 -108q-98 6 -276 6q-201 0 -299 -6q0 76 12 108q57 4 86 20.5t41 55.5 t12 117v491q-84 20 -159 21zM471 918h453v77q0 94 30 170q-86 145 -235 146q-121 0 -184.5 -65.5t-63.5 -217.5v-110z" />
<glyph unicode="&#xfb04;" horiz-adv-x="2074" d="M70 807q0 72 28 111h131v51q0 139 68 243.5t184.5 161t263.5 56.5q188 0 324 -95q74 66 174 98.5t213 32.5q63 0 126 -13t106 -34q78 12 135 49q51 -20 51 -96v-1091q0 -100 27.5 -138.5t97.5 -40.5q12 -38 12 -108q-98 6 -262 6q-174 0 -266 -6q0 72 12 108 q82 2 110.5 39t28.5 140v866q0 94 -62.5 144t-166.5 50q-119 0 -179.5 -66.5t-60.5 -215.5v-141h217q0 -76 -20 -115q-117 0 -197 -25v-448q0 -90 12.5 -136.5t44 -67t91.5 -24.5q12 -35 12 -108q-100 6 -268 6q-186 0 -285 -6q0 70 12 108q57 4 86 20.5t41.5 55.5t12.5 117 v491q-84 23 -205 23q-150 0 -248 -31v-448q0 -92 16.5 -139.5t52 -66t101.5 -22.5q12 -35 12 -108q-98 6 -276 6q-201 0 -299 -6q0 76 12 108q57 4 86 20.5t41 55.5t12 117v491q-84 20 -159 21zM471 918h453v75q0 94 28 174q-41 72 -99 109t-132 37q-250 0 -250 -285v-110z " />
</font>
</defs>
</svg>
